<?xml version="1.0"?>
<svg width="493.46111" height="480.84822" xmlns="http://www.w3.org/2000/svg" xmlns:svg="http://www.w3.org/2000/svg" data-name="Layer 1">
 <g class="layer">
  <title>Layer 1</title>
  <path d="m314.74,107.78l-26.26,0l0,223.85a26.74,26.74 0 0 1 -26.74,26.75l-200.74,0l0,0.25a26.74,26.74 0 0 0 26.74,26.75l227,0a26.74,26.74 0 0 0 26.74,-26.75l0,-224.1a26.74,26.74 0 0 0 -26.74,-26.75z" fill="#c1c1c1" id="svg_1" transform="matrix(1 0 0 1 0 0)"/>
  <path d="m792.47,673.09a2.27,2.27 0 0 0 1.65,-3.93l-0.16,-0.62q0.03,-0.07 0.06,-0.15a6.09,6.09 0 0 1 11.24,0.04c1.84,4.43 4.18,8.87 4.76,13.55a18.03,18.03 0 0 1 -0.32,6.2a72.28,72.28 0 0 0 6.58,-30.02a69.76,69.76 0 0 0 -0.43,-7.78q-0.36,-3.18 -1,-6.31a73.12,73.12 0 0 0 -14.5,-30.99a19.46,19.46 0 0 1 -8.09,-8.4a14.84,14.84 0 0 1 -1.35,-4.06c0.39,0.05 1.48,-5.95 1.19,-6.31c0.55,-0.84 1.53,-1.25 2.13,-2.06c2.98,-4.05 7.09,-3.34 9.23,2.15c4.59,2.32 4.63,6.15 1.82,9.84c-1.79,2.35 -2.04,5.52 -3.61,8.03c0.17,0.21 0.33,0.41 0.5,0.62a73.59,73.59 0 0 1 7.68,12.17a30.59,30.59 0 0 1 1.82,-14.21c1.75,-4.22 5.03,-7.77 7.91,-11.42a6.28,6.28 0 0 1 11.19,3.09q0.01,0.08 0.02,0.16q-0.65,0.36 -1.26,0.77a3.08,3.08 0 0 0 1.24,5.6l0.06,0.01a30.63,30.63 0 0 1 -0.81,4.58c3.7,14.31 -4.29,19.53 -15.7,19.76c-0.25,0.13 -0.5,0.26 -0.75,0.38a75.11,75.11 0 0 1 4.05,19.03a71.24,71.24 0 0 1 -0.06,11.5l0.02,-0.13a18.83,18.83 0 0 1 6.43,-10.87c4.95,-4.06 11.93,-5.56 17.27,-8.83a3.53,3.53 0 0 1 5.41,3.44l-0.02,0.14a20.68,20.68 0 0 0 -2.32,1.12q-0.64,0.36 -1.26,0.77a3.08,3.08 0 0 0 1.24,5.6l0.06,0.01c0.05,0.01 0.09,0.02 0.13,0.02a30.65,30.65 0 0 1 -5.64,8.83c-2.31,12.5 -12.25,13.68 -22.89,10.04l0,0a75.09,75.09 0 0 1 -5.05,14.73l-18.02,0c-0.06,-0.2 -0.12,-0.41 -0.18,-0.61a20.47,20.47 0 0 0 4.99,-0.29c-1.34,-1.64 -2.68,-3.3 -4.01,-4.94a1.12,1.12 0 0 1 -0.09,-0.1c-0.67,-0.83 -1.36,-1.67 -2.04,-2.51l0,0a29.99,29.99 0 0 1 0.88,-7.64z" fill="#f2f2f2" id="svg_2" transform="translate(-353.26944 -209.57589)"/>
  <path d="m593.99,286.92a8.25,8.25 0 0 0 12.47,1.52l37.46,16.9l7.23,-9.21l-44.65,-19.75a8.23,8.23 0 0 0 -12.51,10.54z" fill="#a0616a" id="svg_3" transform="translate(-353.26944 -209.57589)"/>
  <path d="m401.51,87.88l3.71,21.05a7.15,7.15 0 0 1 -6.48,8.38l-63.14,4.96l-74.22,-33.21l8.87,-16.83l64.42,20.4l66.84,-4.75z" fill="#fac600" fill-opacity="0.98" id="svg_4" transform="matrix(1 0 0 1 0 0)"/>
  <rect fill="#c1c1c1" height="277.59" id="svg_5" rx="26.74" width="280.48" y="72.79"/>
  <path d="m380.01,287.86a21.24,21.24 0 0 0 -21.24,21.25l0,224.1a21.24,21.24 0 0 0 21.24,21.25l144.88,0a103.36,103.36 0 0 0 103.36,-103.37l0,-141.98a21.24,21.24 0 0 0 -21.24,-21.25l-227,0z" fill="#fff" id="svg_6" transform="translate(-353.26944 -209.57589)"/>
  <path d="m556.97,355.88l-127.41,0a4.41,4.41 0 1 1 0,-8.82l127.41,0a4.41,4.41 0 0 1 0,8.82z" fill="#f2f2f2" id="svg_7" transform="translate(-353.26944 -209.57589)"/>
  <path d="m556.97,449.88l-127.41,0a4.41,4.41 0 1 1 0,-8.82l127.41,0a4.41,4.41 0 0 1 0,8.82z" fill="#f2f2f2" id="svg_8" transform="translate(-353.26944 -209.57589)"/>
  <path d="m608.7,402.91l-230.88,0a4.41,4.41 0 1 1 0,-8.82l230.88,0a4.41,4.41 0 0 1 0,8.82z" fill="#f2f2f2" id="svg_9" transform="translate(-353.26944 -209.57589)"/>
  <polygon fill="#a0616a" id="svg_10" points="393.531 180.687 370.531 229.687 459.008 220.726 440.539 173.687 393.531 180.687"/>
  <polygon fill="#a0616a" id="svg_11" points="414.101 462.32 405.712 462.249 401.999 429.138 414.379 429.243 414.101 462.32"/>
  <path d="m740.5,685.24a3.76,3.76 0 0 0 3.72,3.78l16.68,0.14l2.92,-5.92l1.07,5.95l6.29,0.05l-1.59,-21.21l-2.19,-0.15l-8.93,-0.61l-2.88,-0.2l-0.05,6.01l-13.4,9.08a3.75,3.75 0 0 0 -1.64,3.08z" fill="#2f2e41" id="svg_12" transform="translate(-353.26944 -209.57589)"/>
  <polygon fill="#a0616a" id="svg_13" points="321.266 462.358 313.268 459.825 319.447 427.085 331.251 430.822 321.266 462.358"/>
  <path d="m644.93,676.79a3.76,3.76 0 0 0 2.44,4.71l15.91,5.03l4.53,-4.8l-0.73,6l6,1.91l4.72,-20.75l-2.05,-0.78l-8.36,-3.21l-2.7,-1.04l-1.81,5.73l-15.47,4.75a3.75,3.75 0 0 0 -2.48,2.45z" fill="#2f2e41" id="svg_14" transform="translate(-353.26944 -209.57589)"/>
  <path d="m808.25,416.52l-80.45,14.74s-12.9,9.65 -9.45,13.11s3.99,2.92 1.72,5.19s-7.17,5.3 -7.22,7.28s-36.05,90.99 -36.05,90.99s4,-2 1,1s-3,5.48 -3,5.48l-14,94.52l22.74,1.34l22.26,-86.18l49.66,-80.5s4.93,71.79 5.13,76.56s3.21,-1.22 0.21,4.78s-5,2 -3,6s-7.2,85.43 -7.2,85.43l20.75,0l44.51,-168.79s15.84,-48.25 -7.61,-70.95z" fill="#2f2e41" id="svg_15" transform="translate(-353.26944 -209.57589)"/>
  <path d="m431.28,71.93l-32.23,-3.35l-8.34,10.84l-9.73,5.18a24.27,24.27 0 0 0 -12.82,22.96l11.37,66.12s-9.6,21.62 -3,27s-5.1,18.71 9,12s75,1 75,1l-13,-37l9.71,-36.35l1.07,-30.49a25.83,25.83 0 0 0 -18.34,-25.63l-1.36,-0.41l-7.33,-11.87z" fill="#fac600" id="svg_16" transform="matrix(1 0 0 1 0 0)"/>
  <path d="m828.91,256.81c0.21,9.08 -3.18,17.87 -8.06,25.6c-1.45,-4.51 -4.05,-8.62 -6.77,-12.53a38.99,38.99 0 0 1 -4.15,24.7a5.22,5.22 0 0 1 -0.44,0.28c-3.98,2.39 -9.01,3.36 -13.31,1.64c8.88,-9.58 10.01,-25.45 2.56,-36.19c-2.11,-3.05 -4.83,-5.74 -6.14,-9.21c-2.06,-5.54 -0.08,-11.63 1.17,-17.4c1.17,-5.37 1.37,-11.76 -2.23,-15.7a3.79,3.79 0 0 1 3.47,-1.6c2.22,0.32 3.84,2.25 4.87,4.24c1.03,1.99 1.71,4.19 3.14,5.91c2.66,3.21 7.19,3.97 11,5.67c9.24,4.11 14.67,14.48 14.89,24.59z" fill="#2f2e41" id="svg_17" transform="translate(-353.26944 -209.57589)"/>
  <path d="m590.92,689.23a1.19,1.19 0 0 0 1.19,1.19l253.29,0a1.19,1.19 0 0 0 0,-2.38l-253.29,0a1.19,1.19 0 0 0 -1.19,1.19z" fill="#ccc" id="svg_18" transform="translate(-353.26944 -209.57589)"/>
  <circle cx="477.64" cy="248.75" fill="#fac600" id="svg_19" r="9" transform="matrix(1 0 0 1 0 0)"/>
  <path d="m751.16,251.61c0.52,-1.84 -3.11,9.45 -1.36,9.65c8,0.92 18.97,5.7 24.54,7.92c0.26,-0.02 0.51,-0.05 0.75,-0.09c0.6,-0.07 1.18,-0.16 1.76,-0.27c12.96,-2.45 17.95,-22.38 17.95,-22.56c0,-0.89 -2.15,-25.49 -5.53,-25.85a24.96,24.96 0 0 0 -2.68,-0.15l-8.4,0a39.05,39.05 0 0 0 -5.28,-0.76l-0.01,0c-16.92,-1.29 -30.26,9.02 -29.01,21.56c0.01,0.02 0.02,0.03 0.03,0.05c0.36,0.53 0.68,1.04 0.96,1.53c0.27,0.46 0.5,0.9 0.7,1.31c1.54,3.21 -2.42,7.24 0.21,7.99c3.49,1 -9.2,33.89 4.64,33.89c-6.73,1.92 -0.73,-29.12 0.73,-34.22z" fill="#2f2e41" id="svg_20" transform="translate(-353.26944 -209.57589)"/>
  <circle cx="412.99" cy="41.44" fill="#a0616a" id="svg_21" r="19.89"/>
  <path d="m743.89,242.15c0.33,0.17 0.66,0.33 0.99,0.49c0.35,0.17 0.69,0.34 1.04,0.49c6.66,3.02 12.08,3.36 15.37,-0.98a18.39,18.39 0 0 1 1.51,-6.63a10.65,10.65 0 0 0 1.76,6.63l6.62,0c6.83,4.53 10.33,5 5.6,19.87c-1.32,4.14 -6.57,28.25 -4.51,31.82c0.6,-0.06 6.96,-26.47 7.53,-26.58c12.97,-2.45 21.21,-23.82 20.15,-25.03a22.28,22.28 0 0 0 -2.3,-9.9a22.79,22.79 0 0 0 -8.66,-9.43a40.17,40.17 0 0 0 -6.92,-2.6c-0.06,-0.01 -0.12,-0.03 -0.17,-0.04c-0.73,-0.2 -1.48,-0.38 -2.22,-0.53a40.84,40.84 0 0 0 -4.67,-0.71c-0.11,0 -0.22,-0.01 -0.32,-0.01a3.51,3.51 0 0 0 -1.78,0.49c-0.01,0 -0.01,0 -0.01,0a3.35,3.35 0 0 0 -0.99,0.88a3.39,3.39 0 0 0 -0.73,2.11l-7.37,0q-0.41,0 -0.82,0.02a19.78,19.78 0 0 0 -19.07,18.6c-0.02,0.35 -0.03,0.69 -0.03,1.04z" fill="#2f2e41" id="svg_22" transform="translate(-353.26944 -209.57589)"/>
  <circle cx="434.12" cy="13.11" fill="#2f2e41" id="svg_23" r="13.11"/>
  <path d="m831.01,462.03a8.25,8.25 0 0 0 -3.72,-11.99l0.07,-41.1l-11.37,-2.82l0.28,48.82a8.23,8.23 0 0 0 14.74,7.09z" fill="#a0616a" id="svg_24" transform="translate(-353.26944 -209.57589)"/>
  <path d="m421.46,101.47l17.69,-12.02a7.15,7.15 0 0 1 10.3,2.49l30.4,55.56l0.12,81.31l-18.99,-1.19l-7.79,-67.13l-31.73,-59.02z" fill="#fac600" id="svg_25" transform="matrix(1 0 0 1 0 0)"/>
  <path d="m638.91,495.45l-189,0a15.5,15.5 0 0 0 0,31l189,0a15.5,15.5 0 1 0 0,-31z" fill="#fff" id="svg_26" transform="translate(-353.26944 -209.57589)"/>
  <path d="m285.64,317.87l-189,0a16.5,16.5 0 0 1 0,-33l189,0a16.5,16.5 0 1 1 0,33zm-189,-31a14.5,14.5 0 0 0 0,29l189,0a14.5,14.5 0 1 0 0,-29l-189,0z" fill="#fac600" id="svg_27" transform="matrix(1 0 0 1 0 0)"/>
  <path d="m296.79,353.52l-83.41,0a4.41,4.41 0 1 1 0,-8.82l83.41,0a4.41,4.41 0 0 1 0,8.82z" fill="#fac600" id="svg_28" transform="matrix(1 0 0 1 0 0)"/>
 </g>
</svg>