<?xml version="1.0"?>
<svg width="844.6701" height="630.24829" xmlns="http://www.w3.org/2000/svg" xmlns:svg="http://www.w3.org/2000/svg">
 <g class="layer">
  <title>Layer 1</title>
  <path d="m839.46,39.15l-538.48,0c-1.18,-0.02 -2.12,-1 -2.09,-2.18c0.02,-1.15 0.94,-2.07 2.09,-2.1l538.48,0c1.18,0.03 2.12,1.01 2.1,2.19c-0.03,1.15 -0.95,2.07 -2.1,2.09z" fill="#bdbcbc" id="svg_1"/>
  <path d="m395.81,259.21l217.25,0c0.55,0 1,0.45 1,1l0,126.32c0,0.55 -0.45,1 -1,1l-217.25,0l0,-128.32l0,0z" fill="#c1c1c1" id="svg_2"/>
  <path d="m612.81,388.22l-217.28,-128.04l0.57,-1.94l217.28,128.04c0.53,0.16 0.84,0.72 0.68,1.25l0,0c-0.16,0.54 -0.72,0.84 -1.25,0.69l0,0z" fill="#fff" id="svg_3"/>
  <path d="m396.1,388.5l-0.57,-1.94l217.28,-128.03c0.53,-0.16 1.09,0.14 1.25,0.68l0,0l0,0c0.16,0.53 -0.15,1.1 -0.68,1.25l-217.28,128.04z" fill="#fff" id="svg_4"/>
  <rect fill="#bdbcbc" height="9.46" id="svg_5" rx="4.73" ry="4.73" transform="matrix(1 0 0 1 0 0)" width="176.61" x="416.51" y="132.84"/>
  <rect fill="#c1c1c1" height="9.46" id="svg_6" rx="4.73" ry="4.73" transform="matrix(1 0 0 1 0 0)" width="221.55" x="394.04" y="162.37"/>
  <rect fill="#fac600" height="9.46" id="svg_7" rx="4.73" ry="4.73" transform="matrix(1 0 0 1 0 0)" width="221.55" x="394.04" y="191.9"/>
  <path d="m811.97,291.59c-0.01,36.52 -23.09,69.05 -57.55,81.13c-0.74,0.26 -1.47,0.5 -2.21,0.73c-45.2,14.45 -93.56,-10.48 -108.01,-55.68c-14.45,-45.21 10.48,-93.57 55.68,-108.02s93.56,10.48 108.01,55.69c2.71,8.45 4.08,17.28 4.08,26.15l0,0z" fill="#bdbcbc" id="svg_8" transform="matrix(1 0 0 1 0 0)"/>
  <path d="m610.82,203.26c-0.35,3.98 2.6,7.49 6.59,7.84c0.42,0.04 0.85,0.03 1.27,0l10.58,23.44l7.15,-11.29l-11.15,-20.54c-0.62,-3.97 -4.35,-6.68 -8.32,-6.06c-3.32,0.53 -5.85,3.26 -6.12,6.61z" fill="#ffb6b6" id="svg_9"/>
  <path d="m715.1,291.56c-0.16,-0.69 -0.35,-1.37 -0.59,-2.04c-1.52,-4.31 -4.61,-7.89 -8.65,-10.02c-0.09,-0.05 -0.2,-0.11 -0.29,-0.16l-48.34,-24.53l-4.29,-8.36l-17.33,-33.75l-4.25,1.26l-10.04,2.99l-0.23,0.06l16.65,56.01l3.82,2.93l43.25,33.07l1.41,1.09c7.18,5.48 17.3,4.89 23.79,-1.4c0.65,-0.62 1.25,-1.29 1.79,-2.01c3.3,-4.3 4.51,-9.85 3.3,-15.14z" fill="#fac600" id="svg_10" transform="matrix(1 0 0 1 0 0)"/>
  <path d="m741.97,353.08l-0.25,-9.23l-0.73,-26.77c2.65,-17.12 4.52,-19.03 -8.25,-30.74c-0.99,-0.21 -1.84,-0.83 -2.35,-1.7c-1.16,-2.37 1.63,-6.4 -0.78,-12.59l-19.02,1.09l-4.73,6.36l-19.01,25.62c-0.75,1.27 -1.43,2.57 -2.04,3.9c-8.14,17.68 2.9,27.08 3.76,28.69l5.26,16.59l2.91,16.09l0.94,2.23l2.64,0.97c16.91,5.28 35.02,5.23 51.89,-0.14c-2.84,-7.06 -6.26,-13.88 -10.24,-20.37z" fill="#fac600" id="svg_11" transform="matrix(1 0 0 1 0 0)"/>
  <path d="m778.82,418.13c1.62,-3.65 -0.02,-7.93 -3.67,-9.55c-0.39,-0.18 -0.79,-0.32 -1.21,-0.42l-2.34,-25.62l-10.45,8.35l3.83,23.05c-0.7,3.95 1.93,7.73 5.89,8.44c3.31,0.59 6.6,-1.16 7.95,-4.25z" fill="#ffb6b6" id="svg_12"/>
  <path d="m742.43,292.52c-2.75,-4.17 -7.11,-7.02 -12.04,-7.88c-1.06,-0.19 -2.13,-0.29 -3.2,-0.29c-3.57,0 -7.07,1.06 -10.05,3.04c-0.94,0.62 -1.82,1.33 -2.63,2.13c-7.23,7 -7.41,18.54 -0.41,25.77l0,0l27.62,28.56l10.06,10.4l2.64,18.47l4.05,28.41l4.42,0.19l10.47,0.46l0.24,0.01l1.74,-39.81l0.81,-18.56l-33.72,-50.9z" fill="#fac600" id="svg_13"/>
  <path d="m704.7,228.38c-6.73,13.25 -2.33,28.61 10.15,36.68c13.49,8.73 31.01,6.82 36.68,-10.15c6.31,-18.89 1.13,-27 -10.15,-36.68c-13.21,-11.35 -29.42,-4.17 -36.68,10.15z" fill="#2f2e41" id="svg_14"/>
  <path d="m737.8,257.91c-7.13,9.35 -20.49,11.14 -29.84,4.01c-9.34,-7.12 -11.14,-20.46 -4.04,-29.81l0.19,-0.25c7.34,-9.18 20.74,-10.68 29.92,-3.34c8.98,7.17 10.65,20.18 3.77,29.38l0,0.01z" fill="#ffb6b6" id="svg_15"/>
  <path d="m698.18,226.23c3.46,3.29 7.68,5.68 12.28,6.96c0.93,-1.07 2.02,-1.97 3.24,-2.68c-0.58,1.21 -0.99,2.51 -1.19,3.84c2.05,4.26 10.44,7.32 18.45,10.46l10.62,-18.74l-14.05,-7.96c-11.29,-7.8 -24.58,-4.47 -29.35,8.12z" fill="#2f2e41" id="svg_16"/>
  <path d="m749.58,218.25c2.09,-0.76 4.41,-0.42 6.19,0.91c1.71,1.3 3.09,2.98 4.04,4.91c1.72,3.12 2.95,6.49 3.66,9.98c0.61,3.02 0.5,6.67 -2.21,8.25c-2.26,1.31 -5.49,0.49 -7.57,-1.27c-1.93,-1.84 -3.39,-4.12 -4.27,-6.63c-1.01,-2.41 -1.97,-4.91 -3.77,-6.91l1.87,0.87c-0.59,-1.8 -0.87,-3.68 -0.82,-5.57c0.09,-1.92 1.19,-3.64 2.88,-4.54z" fill="#2f2e41" id="svg_17"/>
  <path d="m725.28,220.71l15.08,8.54c8.48,4.81 11.47,15.59 6.66,24.07l0,0c-6.97,12.3 -22.16,17.29 -35.06,11.51l13.77,-12.16l-18.68,9.52l-3.99,-2.26c20.04,-3.64 23.9,-19.36 22.22,-39.22z" fill="#2f2e41" id="svg_18"/>
  <path d="m753.76,235.72c2.53,2.95 6.51,4.1 10.09,5.64c12.84,5.63 22.07,17.24 24.66,31.01c0.99,5.53 0.86,11.25 2.43,16.64c1.55,5.39 5.4,10.67 10.93,11.61c3.74,0.64 7.49,-0.81 11.01,-2.23c1.93,-0.78 3.87,-1.56 5.8,-2.35c-2.02,-5.06 -4.03,-10.12 -6.04,-15.19c3.23,4.78 6.99,9.18 11.21,13.12c6.93,-2.8 13.87,-5.59 20.82,-8.39c-17.09,0.07 -14.17,-16.52 -18,-33.17c-2.1,-9.15 -19.99,-15.34 -23.5,-24.04c-5.48,-13.65 -20.99,-20.26 -34.63,-14.78c-5.88,2.36 -10.72,6.74 -13.66,12.35c-3.51,1.4 -3.61,6.86 -1.12,9.78z" fill="#2f2e41" id="svg_19"/>
  <path d="m257.31,395.97c-3.2,-4.05 -2.51,-9.94 1.54,-13.14c0.4,-0.31 0.81,-0.59 1.25,-0.83l-4.88,-46.37l12.49,-4.5l5.4,55.11c2.17,4.69 0.13,10.24 -4.55,12.41c-3.92,1.81 -8.57,0.71 -11.25,-2.68l0,0z" fill="#ffb6b6" id="svg_20"/>
  <path d="m250.63,225.96s20.28,9.9 20.35,21.53s1.74,22.16 0.16,26.66s4.03,37.22 1.4,40.46s2.79,4.9 -0.06,10.45s-4.11,6.59 -3.07,7.85s2.58,25.3 2.58,25.3l-16.71,2.09l-17.78,-77.59l13.13,-56.75z" fill="#00abc8" id="svg_21" transform="matrix(1 0 0 1 0 0)"/>
  <path d="m154.17,400.68c3.8,-3.5 4.05,-9.41 0.55,-13.22c-0.34,-0.36 -0.71,-0.7 -1.1,-1.01l12.13,-45.03l-11.63,-6.41l-14.02,53.58c-2.88,4.28 -1.74,10.08 2.54,12.96c3.58,2.41 8.35,2.05 11.53,-0.87l0,0z" fill="#ffb6b6" id="svg_22"/>
  <path d="m187.58,233.85s-21.59,6.58 -23.49,18.06s-5.22,21.6 -4.36,26.3s-9.86,36.12 -7.77,39.73s-3.53,4.4 -1.59,10.32s3.02,7.16 1.79,8.24s-6.53,24.58 -6.53,24.58l16.17,4.7l29.79,-73.82l-4.01,-58.11z" fill="#00abc8" id="svg_23" transform="matrix(1 0 0 1 0 0)"/>
  <polygon fill="#ffb6b6" id="svg_24" points="270.48699 602.1089 284.88698 602.10792 291.738 546.56391 270.48498 546.56489 270.48699 602.1089"/>
  <path d="m289.68,603.41l0,-9.77l-3.79,0.23l-15.41,0.92l-3.56,0.22l-2.73,32.69l-0.15,1.75l10.23,0l0.33,-1.74l1.48,-7.91l3.84,7.91l0.84,1.74l27.11,0c3.35,-0.02 6.07,-2.74 6.08,-6.09c1.15,-5.35 -21.4,-16.9 -24.27,-19.95z" fill="#2f2e41" id="svg_25"/>
  <polygon fill="#ffb6b6" id="svg_26" points="101.77999 586.43391 114.30499 593.53993 147.67399 548.61091 129.18899 538.12391 101.77999 586.43391"/>
  <path d="m117.84,597.03l4.81,-8.49l-3.39,-1.67l-13.86,-6.8l-3.21,-1.58l-15.79,23.11l-3.72,5.43l4.2,2.39l4.69,2.66l6.35,-7.49l-0.7,10.7l22.14,12.57l0.01,0l1.43,0.8c2.93,1.66 6.64,0.63 8.3,-2.3c3.63,-4.09 -10.27,-25.24 -11.26,-29.33z" fill="#2f2e41" id="svg_27"/>
  <path d="m199.02,329.46c-31.91,1.14 -43.13,131.27 -33.38,133.63l-45.49,84.76l64.74,29.02l42.57,-147.8l7.09,54.39l-9.45,86.32l41.84,10.12l28.95,-2.07c-7.53,-102.89 -26.3,-211.4 -41.87,-253.37l-55,5z" fill="#2f2e41" id="svg_28"/>
  <path d="m184.37,338.58l-0.21,0.79c20.4,11.35 34.33,8.92 56.63,2.05l16.28,-3.42c3.56,-4.63 0.66,-9.17 -3.28,-13.58l9.76,-80.27c-0.06,-10.4 -8.55,-18.78 -18.95,-18.71c-0.42,0 -0.85,0.02 -1.28,0.05l-14.66,-10.86l-20.87,0.72l-13.96,15.42l-8.34,2.98l-6.48,2.31c-1.31,1.18 -2.74,2.54 -4.11,4.04l10.25,61l4.36,18.24c-5.84,6.66 -9.06,13.17 -5.14,19.24z" fill="#00abc8" id="svg_29" transform="matrix(1 0 0 1 0 0)"/>
  <path d="m0,629.06c0,0.65 0.53,1.19 1.18,1.19l842.3,0c0.66,0 1.19,-0.53 1.19,-1.19s-0.53,-1.19 -1.19,-1.19l-842.29,0c-0.66,0 -1.19,0.53 -1.19,1.18l0,0.01z" fill="#ccc" id="svg_31"/>
  <path d="m247.91,200.94l0.02,-0.01c2.27,-0.6 3.63,-2.93 3.03,-5.2l-6.07,-22.97c-1.08,-4.12 -2.98,-7.98 -5.58,-11.35c-5.09,-6.56 -12.52,-10.92 -20.74,-12.14c-4.24,-0.63 -8.57,-0.4 -12.72,0.69c-16.97,4.45 -21.71,10.07 -22.66,38.79s6.07,23 6.07,23c0.15,0.56 0.4,1.08 0.75,1.53c0.69,0.88 1.69,1.47 2.79,1.63c0.57,0.08 1.15,0.05 1.7,-0.09c21.19,-2.19 42.66,-4.17 53.41,-13.89l0,0.01z" fill="#2f2e41" id="b-998"/>
  <path d="m198.08,176.69c-3.11,12.55 4.55,25.25 17.1,28.36c6.02,1.49 12.38,0.53 17.69,-2.66c5.32,-3.17 9.14,-8.33 10.62,-14.34c3.1,-12.55 -4.57,-25.25 -17.12,-28.35c-6.01,-1.48 -12.35,-0.53 -17.65,2.65c-5.32,3.17 -9.15,8.33 -10.64,14.34l0,0z" fill="#ffb6b6" id="c-999"/>
  <path d="m252.67,172.7c-0.86,-3.25 -2.36,-6.3 -4.42,-8.97c-2.92,-7.29 -7.51,-13.18 -16.39,-9.6c-3.34,-0.49 -6.74,-0.31 -10,0.54l-4.6,1.19c-0.05,0.01 -0.1,0.02 -0.16,0.04c-13.38,3.54 -21.36,17.26 -17.82,30.65l0,0l0.12,0.46l9.74,-2.53l0.87,-10.14l3.11,9.11l5.03,-1.31l0.44,-5.11l1.57,4.59c9.54,3.71 20.59,0.03 32.63,-8.46l-0.12,-0.46z" fill="#2f2e41" id="d-1000"/>
  <path d="m230.33,204.8c0.35,0.7 0.5,1.49 0.42,2.27c-0.04,0.4 -0.13,0.79 -0.27,1.16c-0.13,0.32 -0.29,0.62 -0.49,0.9c-0.58,0.83 -1.43,1.42 -2.41,1.68c-0.06,0.01 -0.12,0.03 -0.18,0.04s-0.13,0.03 -0.19,0.04c-0.06,0.01 -0.13,0.02 -0.19,0.02c-0.06,0.01 -0.13,0.02 -0.19,0.02l-3.62,0.29l-7.43,-8.9l2.45,9.3l-16.44,1.32l-10.42,-39.49l26.34,-6.81l-0.45,0.92c-1.49,3.11 -2.09,6.56 -1.74,9.99c0.37,3.46 1.33,6.84 2.83,9.98c1.51,3.19 3.31,6.22 5.39,9.06c1.83,2.52 3.81,4.94 5.91,7.23c0.27,0.29 0.5,0.62 0.68,0.98z" fill="#2f2e41" id="e-1001"/>
  <g id="svg_32">
   <ellipse cx="360.76" cy="8.65" fill="#3f3d56" id="svg_33" rx="8.46" ry="8.65"/>
   <ellipse cx="389.97" cy="8.65" fill="#3f3d56" id="svg_34" rx="8.46" ry="8.65"/>
   <ellipse cx="419.19" cy="8.65" fill="#3f3d56" id="svg_35" rx="8.46" ry="8.65"/>
   <path d="m452.5,15.48c-0.26,0 -0.52,-0.1 -0.72,-0.3l-5.7,-5.84c-0.38,-0.38 -0.38,-1.01 0,-1.39l5.7,-5.84c0.39,-0.39 1.02,-0.4 1.42,-0.01c0.39,0.38 0.4,1.02 0.01,1.41l-5.02,5.13l5.02,5.14c0.39,0.39 0.38,1.03 -0.01,1.41c-0.2,0.19 -0.45,0.29 -0.7,0.29z" fill="#3f3d56" id="svg_36"/>
   <path d="m462.09,15.48c-0.26,0 -0.51,-0.1 -0.7,-0.29c-0.4,-0.38 -0.41,-1.02 -0.02,-1.41l5.02,-5.14l-5.02,-5.13c-0.39,-0.39 -0.38,-1.03 0.02,-1.41c0.39,-0.39 1.02,-0.38 1.41,0.01l5.71,5.84c0.38,0.38 0.38,1.01 0,1.39l-5.71,5.84c-0.2,0.2 -0.45,0.3 -0.71,0.3z" fill="#3f3d56" id="svg_37"/>
   <path d="m760.6,1l-10.61,0c-1.21,0 -2.19,0.98 -2.19,2.19l0,10.62c0,1.21 0.98,2.19 2.19,2.19l10.61,0c1.21,0 2.2,-0.98 2.2,-2.19l0,-10.62c0,-1.21 -0.99,-2.19 -2.2,-2.19z" fill="#3f3d56" id="svg_38"/>
   <path d="m734.6,1l-10.61,0c-1.21,0 -2.19,0.98 -2.19,2.19l0,10.62c0,1.21 0.98,2.19 2.19,2.19l10.61,0c1.21,0 2.2,-0.98 2.2,-2.19l0,-10.62c0,-1.21 -0.99,-2.19 -2.2,-2.19z" fill="#3f3d56" id="svg_39"/>
   <path d="m785.1,1.5l-10.61,0c-1.21,0 -2.19,0.98 -2.19,2.19l0,10.62c0,1.21 0.98,2.19 2.19,2.19l10.61,0c1.21,0 2.2,-0.98 2.2,-2.19l0,-10.62c0,-1.21 -0.99,-2.19 -2.2,-2.19z" fill="#3f3d56" id="svg_40"/>
   <path d="m625.17,5.54l-84.81,0c-1.48,0 -2.67,1.2 -2.67,2.67s1.19,2.67 2.67,2.67l84.81,0c1.47,0 2.67,-1.2 2.67,-2.67s-1.2,-2.67 -2.67,-2.67z" fill="#3f3d56" id="svg_41"/>
  </g>
 </g>
</svg>