<?xml version="1.0"?>
<svg width="722" height="568.2821" xmlns="http://www.w3.org/2000/svg" xmlns:svg="http://www.w3.org/2000/svg" data-name="Layer 1">
 <g class="layer">
  <title>Layer 1</title>
  <path d="m443.38,504.73l-19.27,17.74l15.32,-25.69c-12.07,-21.88 -31.8,-40.79 -31.8,-40.79s-40.94,39.22 -40.94,70.05s18.33,41.6 40.94,41.6c22.61,0 40.94,-10.77 40.94,-41.6c0,-6.86 -2.04,-14.14 -5.19,-21.31z" fill="#5fbf00" id="svg_1"/>
  <path d="m658.16,689.29l0,1.52c-0.09,17.67 -3.07,31.45 -8.92,41.15c-0.08,0.15 -0.17,0.28 -0.25,0.42l-0.66,-0.39l-0.62,-0.4c6.48,-10.48 8.78,-25.29 8.86,-40.7c0.01,-0.49 0.02,-1 0.01,-1.5c-0.02,-6.52 -0.42,-13.12 -1.06,-19.53c-0.05,-0.5 -0.1,-1 -0.15,-1.5c-0.89,-8.46 -2.17,-16.54 -3.48,-23.56c-0.09,-0.5 -0.19,-0.99 -0.29,-1.48c-2.26,-11.87 -4.57,-20.47 -5.1,-22.37c-0.06,-0.24 -0.09,-0.37 -0.1,-0.4l0.71,-0.2l0.01,-0.01l0.72,-0.2c0.01,0.03 0.14,0.46 0.35,1.26c0.8,2.98 2.9,11.06 4.95,21.73c0.09,0.48 0.19,0.98 0.28,1.48c1.07,5.69 2.11,12.06 2.94,18.74q0.32,2.51 0.56,4.96c0.06,0.5 0.12,1.01 0.16,1.51q1.04,10.39 1.08,19.47z" fill="#fff" id="svg_2" transform="translate(-239 -165.85895)"/>
  <path d="m653.14,643.13c-0.5,0.07 -1.02,0.14 -1.54,0.19a41.5,41.5 0 0 1 -4.24,0.22a40.37,40.37 0 0 1 -17.45,-3.94c-0.32,0.39 -0.63,0.79 -0.96,1.2a41.87,41.87 0 0 0 18.41,4.24a42.94,42.94 0 0 0 4.53,-0.24c0.51,-0.05 1.02,-0.12 1.53,-0.19a41.51,41.51 0 0 0 12,-3.64q-0.49,-0.62 -0.95,-1.22a40.23,40.23 0 0 1 -11.33,3.38z" fill="#fff" id="svg_3" transform="translate(-239 -165.85895)"/>
  <path d="m656.92,668.31q-0.77,0.05 -1.55,0.05c-0.16,0 -0.33,0 -0.49,0a40.59,40.59 0 0 1 -33.31,-17.4c-0.3,0.45 -0.6,0.89 -0.89,1.34a42.09,42.09 0 0 0 34.2,17.57c0.22,0 0.43,0 0.64,-0.01c0.52,-0.01 1.04,-0.02 1.56,-0.04a41.87,41.87 0 0 0 22.31,-7.83c-0.24,-0.44 -0.48,-0.89 -0.73,-1.33a40.31,40.31 0 0 1 -21.74,7.65z" fill="#fff" id="svg_4" transform="translate(-239 -165.85895)"/>
  <path d="m419.16,523.43c-0.53,0.05 -1.06,0.08 -1.58,0.1c-0.57,0.02 -1.13,0.04 -1.7,0.04a40.7,40.7 0 0 1 -39.01,-29.28c-0.34,0.61 -0.68,1.21 -1,1.82a42.19,42.19 0 0 0 40.01,28.96c0.57,0 1.13,0 1.69,-0.04c0.53,-0.01 1.06,-0.04 1.59,-0.08a42.06,42.06 0 0 0 27.76,-13.55c-0.16,-0.55 -0.34,-1.1 -0.52,-1.66a40.56,40.56 0 0 1 -27.24,13.69z" fill="#fff" id="svg_5" transform="matrix(1 0 0 1 0 0)"/>
  <circle cx="98.75" cy="101.78" fill="#bdbcbc" id="svg_6" r="98.75" transform="matrix(1 0 0 1 0 0)"/>
  <circle cx="98.75" cy="101.78" fill="#00bf00" id="svg_7" r="82.29" transform="matrix(1 0 0 1 0 0)"/>
  <circle cx="361" cy="101.78" fill="#bdbcbc" id="svg_8" r="98.75" transform="matrix(1 0 0 1 0 0)"/>
  <circle cx="361" cy="101.78" fill="#fff" id="svg_9" r="82.29"/>
  <circle cx="623.25" cy="101.78" fill="#bdbcbc" id="svg_10" r="98.75" stroke="#bdbcbc"/>
  <circle cx="623.25" cy="101.78" fill="#fff" id="svg_11" r="82.29"/>
  <path d="m330.76,297.4q-0.22,0 -0.44,-0.01a9.03,9.03 0 0 1 -6.7,-3.48l-12.62,-16.23a9.05,9.05 0 0 1 1.58,-12.7l0.46,-0.35a9.06,9.06 0 0 1 12.69,1.59a8.04,8.04 0 0 0 12.19,0.59l25.63,-27.06a9.04,9.04 0 0 1 12.79,-0.34l0.41,0.39a9.04,9.04 0 0 1 0.35,12.79l-39.78,41.98a9.03,9.03 0 0 1 -6.56,2.83z" fill="#fff" id="svg_12" transform="translate(-239 -165.85895)"/>
  <path d="m556.66,247.64l-65,0l0,-56.53a13.22,13.22 0 0 1 13.43,-12.97l21.61,0c16.52,0 29.96,12.97 29.96,28.92l0,40.58z" fill="#2f2e41" id="svg_13" transform="translate(-239 -165.85895)"/>
  <polygon fill="#ffb6b6" id="svg_14" points="341.722 554.819 329.383 554.818 323.512 507.223 341.724 507.224 341.722 554.819"/>
  <path d="m583.87,732.64l-39.79,0l0,-0.51a15.49,15.49 0 0 1 15.49,-15.48l0,0l24.3,0l0,15.99z" fill="#2f2e41" id="svg_15" transform="translate(-239 -165.85895)"/>
  <polygon fill="#ffb6b6" id="svg_16" points="227.987 554.819 215.647 554.818 209.777 507.223 227.989 507.224 227.987 554.819"/>
  <path d="m470.13,732.64l-39.78,0l0,-0.51a15.49,15.49 0 0 1 15.48,-15.48l0,0l24.3,0l0,15.99z" fill="#2f2e41" id="svg_17" transform="translate(-239 -165.85895)"/>
  <polygon fill="#ffb6b6" id="svg_18" points="242.886 172.448 234.834 223.78 311.328 224.786 301.263 175.468 242.886 172.448"/>
  <path d="m237.05,211.25l-24.36,64.87l-3.02,268.84l20.63,0l49.32,-216l45.3,210.36l20.13,0l-14.09,-236.53s4.15,-47.47 -17.12,-75.49l-5.17,-14.95l-71.62,-1.1z" fill="#2f2e41" id="svg_19" transform="matrix(1 0 0 1 0 0)"/>
  <path d="m580.56,427.68a15.1,15.1 0 0 1 -9.68,-21.04l-32.54,-106.09l23.94,-4.75l29.76,104a15.18,15.18 0 0 1 -11.48,27.88z" fill="#ffb6b6" id="svg_20" transform="translate(-239 -165.85895)"/>
  <path d="m298.49,200.8l-52.73,-1.02a6.89,6.89 0 0 1 -6.53,-5.2c-2.83,-11.19 -9.05,-40.35 -5.75,-69.41a42.37,42.37 0 0 1 48.15,-37.06a42.38,42.38 0 0 1 34.99,52.73c-6.64,25.2 -10.38,43.23 -11.14,53.59a6.88,6.88 0 0 1 -5.51,6.24l0,0a6.86,6.86 0 0 1 -1.33,0.13c-0.05,0 -0.1,0 -0.15,0z" fill="#fac600" id="svg_21" transform="matrix(1 0 0 1 0 0)"/>
  <path d="m377.32,273.46a14.8,14.8 0 0 1 0.78,2.2l66,22.43l12.76,-11.14l19.33,17.05l-20.66,21.91a11.24,11.24 0 0 1 -13.3,2.31l-70.63,-36.08a14.75,14.75 0 1 1 5.72,-18.68z" fill="#ffb6b6" id="svg_22" transform="translate(-239 -165.85895)"/>
  <path d="m205.24,128.65a6.32,6.32 0 0 1 2.22,-4.77l24.17,-20.59a17.57,17.57 0 0 1 26.53,23.03l-17.21,26.8a6.33,6.33 0 0 1 -9.49,1.35l-24.06,-21.02a6.32,6.32 0 0 1 -2.16,-4.8z" fill="#fac600" id="svg_23" transform="matrix(1 0 0 1 0 0)"/>
  <path d="m297.88,161.56a6.32,6.32 0 0 1 -3.21,-4.17l-7.15,-30.93a17.57,17.57 0 0 1 32.66,-12.95l15.87,27.62a6.33,6.33 0 0 1 -3.17,9.04l-29.74,11.68a6.32,6.32 0 0 1 -5.26,-0.29z" fill="#fac600" id="svg_24" transform="matrix(1 0 0 1 0 0)"/>
  <ellipse cx="548.66" cy="177.77" fill="#2f2e41" id="svg_25" rx="11.25" ry="15" transform="translate(-69.34548 446.63755) rotate(-66.86956)"/>
  <circle cx="511.82" cy="211.39" fill="#ffb6b6" id="svg_26" r="30.77" transform="translate(-158.16328 393.23234) rotate(-61.33681)"/>
  <path d="m528.7,176.14l-35.2,0a10.23,10.23 0 0 0 -10.32,9.34a10,10 0 0 0 9.98,10.66l0,0a10,10 0 0 1 10,10l0,41l55,0l0,-41.54a29.46,29.46 0 0 0 -29.46,-29.46z" fill="#2f2e41" id="svg_27" transform="translate(-239 -165.85895)"/>
  <path d="m702.22,734.14l-381,0a1,1 0 0 1 0,-2l381,0a1,1 0 0 1 0,2z" fill="#cacaca" id="svg_28" transform="translate(-239 -165.85895)"/>
 </g>
</svg>