<?xml version="1.0"?>
<svg width="758.6969" height="683.65741" xmlns="http://www.w3.org/2000/svg" xmlns:svg="http://www.w3.org/2000/svg" data-name="Layer 1">
 <g class="layer">
  <title>Layer 1</title>
  <path d="m728.11,271c0,118.6 -76.18,219.4 -182.28,256.14a272.76,272.76 0 0 1 -132.97,11.26q-6.34,-1.03 -12.6,-2.38q-8.47,-1.8 -16.75,-4.14c-113.91,-32.06 -197.4,-136.72 -197.4,-260.88c0,-149.67 121.33,-271 271,-271s271,121.33 271,271z" fill="#bdbcbc" id="svg_1"/>
  <path d="m508.03,462.81a2.04,2.04 0 0 0 -0.84,2.77l101.89,190.84a2.04,2.04 0 0 0 2.76,0.83l144.03,-76.89a2.04,2.04 0 0 0 0.84,-2.76l-101.89,-190.84a2.04,2.04 0 0 0 -2.76,-0.84l-144.03,76.89z" fill="#3f3d56" id="svg_2" transform="translate(-220.65155 -108.1713)"/>
  <path d="m300.77,360.22l93.23,174.64l127.83,-68.25l-93.24,-174.64l-127.82,68.25zm-8.1,4.32l0.01,0l-0.02,0.01l0.01,-0.01z" fill="#fff" id="svg_3" transform="matrix(1 0 0 1 0 0)"/>
  <path d="m333,379.42c-1.99,1.06 -2.41,4.16 -0.95,6.9s4.27,4.11 6.26,3.05l93.62,-49.98c1.98,-1.06 2.41,-4.16 0.94,-6.9s-4.27,-4.11 -6.26,-3.05l-93.61,49.98z" fill="#fac600" id="svg_4" transform="matrix(1 0 0 1 0 0)"/>
  <path d="m344.53,401.02c-1.99,1.06 -2.41,4.16 -0.94,6.9s4.27,4.12 6.25,3.06l93.62,-49.99c1.99,-1.06 2.41,-4.15 0.95,-6.9s-4.27,-4.11 -6.26,-3.05l-93.62,49.98z" fill="#fac600" id="svg_5" transform="matrix(1 0 0 1 0 0)"/>
  <path d="m356.06,422.63c-1.98,1.06 -2.4,4.15 -0.94,6.9s4.27,4.11 6.26,3.05l93.62,-49.98c1.98,-1.06 2.41,-4.16 0.94,-6.9s-4.27,-4.11 -6.26,-3.05l-93.62,49.98z" fill="#fac600" id="svg_6" transform="matrix(1 0 0 1 0 0)"/>
  <path d="m367.6,444.23c-1.99,1.06 -2.41,4.16 -0.94,6.9s4.27,4.12 6.25,3.06l93.62,-49.99c1.99,-1.06 2.41,-4.15 0.95,-6.9s-4.28,-4.11 -6.26,-3.05l-93.62,49.98z" fill="#fac600" id="svg_7" transform="matrix(1 0 0 1 0 0)"/>
  <path d="m379.13,465.84c-1.98,1.06 -2.4,4.15 -0.94,6.9s4.27,4.11 6.26,3.05l93.62,-49.98c1.98,-1.06 2.41,-4.16 0.94,-6.9s-4.27,-4.12 -6.26,-3.06l-93.62,49.99z" fill="#fac600" id="svg_8" transform="matrix(1 0 0 1 0 0)"/>
  <polygon fill="#2f2e41" id="svg_9" points="397.312 272.193 482.142 277.373 505.899 206.525 431.494 190.804 397.312 272.193"/>
  <circle cx="458.49" cy="220.35" fill="#ffb8b8" id="svg_10" r="33.93"/>
  <path d="m766.26,632.67l0.22,2.64a272.76,272.76 0 0 1 -132.97,11.26l-12.6,-2.38l11.99,-26.59l7.86,-17.43l-2.83,-60.3l-0.3,-6.24l-0.37,-7.96l5.12,-0.03l36.4,-0.22l34.69,-0.22l5.29,-0.03c33.17,40.8 60.54,73.96 47.5,107.5z" fill="#2f2e41" id="svg_11" transform="translate(-220.65155 -108.1713)"/>
  <path d="m497.61,416.5l-81,9l-3,-56c-9.5,-24.24 -3.23,-45.88 16.5,-65.3l4.01,-15.88a23.5,23.5 0 0 1 17.36,-17.11l0,0c13.26,-7.6 28.28,-11.23 45.13,-10.71l0,0a33.68,33.68 0 0 1 21.33,33.99c-3.49,44.01 -9.74,85.2 -20.33,122.01z" fill="#fac600" id="svg_12" transform="matrix(1 0 0 1 0 0)"/>
  <path d="m653.48,288.44s-17.55,6.4 -18,29.67a42.02,42.02 0 0 0 1.56,11.59c1.13,4.28 2.05,13.56 -5.6,25.93a239.88,239.88 0 0 0 -13.54,24.92l0,0l19.76,1.9l3.26,-32.74a162.53,162.53 0 0 1 11.62,-46.17l0.12,-0.31s9.06,15.75 26.29,15.27l-6.33,-5.98s21.58,8.13 33.31,9.76a7.43,7.43 0 0 1 4.47,12.35q-0.1,0.11 -0.21,0.23c-7.17,7.59 -21.45,25.22 -12.46,38.51s1.72,17.19 1.72,17.19l13.32,-7.76l6.05,-3.86l0.14,4.92l31.88,-4.59s8.58,-1.48 -10.47,-21.87c0,0 -5.1,-7.99 -3.16,-15.05a35.35,35.35 0 0 0 0.87,-16.56c-4.78,-22.95 -22.29,-68.34 -84.6,-37.35z" fill="#2f2e41" id="svg_13" transform="translate(-220.65155 -108.1713)"/>
  <ellipse cx="457.11" cy="674.16" fill="#bdbcbc" id="svg_14" rx="122" ry="7" transform="matrix(1 0 0 1 0 0)"/>
  <path d="m0.74,322.53a1,1 0 0 0 -0.7,1.23l27.29,102.42a1,1 0 0 0 1.22,0.71l77.3,-20.59a1,1 0 0 0 0.71,-1.23l-27.29,-102.42a1,1 0 0 0 -1.22,-0.71l-77.31,20.59z" fill="#bdbcbc" id="svg_15" transform="matrix(1 0 0 1 0 0)"/>
  <path d="m240.39,447.62c-1.07,0.28 -1.61,1.71 -1.22,3.19s1.58,2.44 2.64,2.15l50.25,-13.39c1.07,-0.28 1.61,-1.71 1.22,-3.18s-1.58,-2.44 -2.64,-2.16l-50.25,13.39z" fill="#fff" id="svg_16" transform="translate(-220.65155 -108.1713)"/>
  <path d="m243.48,459.22c-1.07,0.28 -1.61,1.71 -1.22,3.18s1.58,2.44 2.64,2.16l50.25,-13.39c1.07,-0.28 1.61,-1.71 1.22,-3.19s-1.58,-2.44 -2.64,-2.15l-50.25,13.39z" fill="#fff" id="svg_17" transform="translate(-220.65155 -108.1713)"/>
  <path d="m246.57,470.81c-1.07,0.28 -1.61,1.71 -1.22,3.19s1.58,2.44 2.64,2.15l50.25,-13.39c1.06,-0.28 1.61,-1.71 1.22,-3.18s-1.58,-2.44 -2.64,-2.16l-50.25,13.39z" fill="#fff" id="svg_18" transform="translate(-220.65155 -108.1713)"/>
  <path d="m249.66,482.41c-1.07,0.28 -1.62,1.71 -1.22,3.18s1.58,2.44 2.64,2.16l50.25,-13.39c1.06,-0.28 1.61,-1.71 1.22,-3.19s-1.58,-2.44 -2.65,-2.15l-50.24,13.39z" fill="#fff" id="svg_19" transform="translate(-220.65155 -108.1713)"/>
  <path d="m252.75,494c-1.07,0.29 -1.62,1.72 -1.22,3.19s1.57,2.44 2.64,2.15l50.25,-13.38c1.06,-0.29 1.61,-1.72 1.22,-3.19s-1.58,-2.44 -2.65,-2.16l-50.24,13.39z" fill="#fff" id="svg_20" transform="translate(-220.65155 -108.1713)"/>
  <path d="m255.84,505.6c-1.07,0.28 -1.62,1.71 -1.22,3.18s1.57,2.44 2.64,2.16l50.25,-13.39c1.06,-0.28 1.61,-1.71 1.22,-3.18s-1.58,-2.44 -2.65,-2.16l-50.24,13.39z" fill="#fff" id="svg_21" transform="translate(-220.65155 -108.1713)"/>
  <path d="m198.3,683.43c0,0.12 0.45,0.23 1,0.23l106,0c0.55,0 1,-0.11 1,-0.23l0,-18.54c0,-0.13 -0.45,-0.23 -1,-0.23l-106,0c-0.55,0 -1,0.1 -1,0.23l0,18.54z" fill="#bdbcbc" id="svg_22" transform="matrix(1 0 0 1 0 0)"/>
  <path d="m440.18,788.35c0,0.26 1.24,0.47 2.77,0.47s2.76,-0.21 2.76,-0.47l0,-12.05c0,-0.25 -1.24,-0.46 -2.76,-0.46s-2.77,0.21 -2.77,0.46l0,12.05z" fill="#fff" id="svg_23" transform="translate(-220.65155 -108.1713)"/>
  <path d="m452.18,788.35c0,0.26 1.24,0.47 2.77,0.47s2.76,-0.21 2.76,-0.47l0,-12.05c0,-0.25 -1.24,-0.46 -2.76,-0.46s-2.77,0.21 -2.77,0.46l0,12.05z" fill="#fff" id="svg_24" transform="translate(-220.65155 -108.1713)"/>
  <path d="m464.18,788.35c0,0.26 1.24,0.47 2.77,0.47s2.76,-0.21 2.76,-0.47l0,-12.05c0,-0.25 -1.24,-0.46 -2.76,-0.46s-2.77,0.21 -2.77,0.46l0,12.05z" fill="#fff" id="svg_25" transform="translate(-220.65155 -108.1713)"/>
  <path d="m476.18,788.35c0,0.26 1.24,0.47 2.77,0.47s2.76,-0.21 2.76,-0.47l0,-12.05c0,-0.25 -1.24,-0.46 -2.76,-0.46s-2.77,0.21 -2.77,0.46l0,12.05z" fill="#fff" id="svg_26" transform="translate(-220.65155 -108.1713)"/>
  <path d="m488.18,788.35c0,0.26 1.24,0.47 2.77,0.47s2.76,-0.21 2.76,-0.47l0,-12.05c0,-0.25 -1.24,-0.46 -2.76,-0.46s-2.77,0.21 -2.77,0.46l0,12.05z" fill="#fff" id="svg_27" transform="translate(-220.65155 -108.1713)"/>
  <path d="m500.18,788.35c0,0.26 1.24,0.47 2.77,0.47s2.76,-0.21 2.76,-0.47l0,-12.05c0,-0.25 -1.24,-0.46 -2.76,-0.46s-2.77,0.21 -2.77,0.46l0,12.05z" fill="#fff" id="svg_28" transform="translate(-220.65155 -108.1713)"/>
  <path d="m3.58,248.62a1,1 0 0 0 -0.41,1.35l49.92,93.51a1,1 0 0 0 1.36,0.41l70.57,-37.68a1,1 0 0 0 0.41,-1.35l-49.93,-93.51a1,1 0 0 0 -1.35,-0.41l-70.57,37.68z" fill="#bdbcbc" id="svg_29" transform="matrix(1 0 0 1 0 0)"/>
  <path d="m10.14,251.35l45.68,85.57l62.64,-33.44l-45.69,-85.57l-62.63,33.44zm-3.97,2.12l0.01,0l-0.01,0z" fill="#fff" id="svg_30"/>
  <path d="m25.93,260.76c-0.97,0.52 -1.18,2.03 -0.46,3.38s2.09,2.01 3.06,1.49l45.88,-24.49c0.97,-0.52 1.18,-2.03 0.46,-3.38s-2.09,-2.01 -3.07,-1.49l-45.87,24.49z" fill="#fac600" id="svg_31" transform="matrix(1 0 0 1 0 0)"/>
  <path d="m31.58,271.34c-0.97,0.52 -1.18,2.04 -0.46,3.38s2.09,2.02 3.07,1.5l45.87,-24.49c0.97,-0.52 1.18,-2.04 0.46,-3.38s-2.09,-2.02 -3.07,-1.5l-45.87,24.49z" fill="#fac600" id="svg_32" transform="matrix(1 0 0 1 0 0)"/>
  <path d="m37.23,281.93c-0.97,0.52 -1.18,2.04 -0.46,3.38s2.1,2.02 3.07,1.5l45.87,-24.49c0.97,-0.52 1.18,-2.04 0.46,-3.38s-2.09,-2.02 -3.06,-1.5l-45.88,24.49z" fill="#fac600" id="svg_33" transform="matrix(1 0 0 1 0 0)"/>
  <path d="m42.89,292.52c-0.98,0.52 -1.18,2.03 -0.47,3.38s2.1,2.01 3.07,1.49l45.87,-24.49c0.97,-0.52 1.18,-2.03 0.46,-3.38s-2.09,-2.01 -3.06,-1.5l-45.87,24.5z" fill="#fac600" id="svg_34" transform="matrix(1 0 0 1 0 0)"/>
  <path d="m48.54,303.1c-0.97,0.52 -1.18,2.04 -0.46,3.38s2.09,2.02 3.06,1.5l45.87,-24.49c0.98,-0.52 1.18,-2.04 0.47,-3.38s-2.1,-2.02 -3.07,-1.5l-45.87,24.49z" fill="#fac600" id="svg_35" transform="matrix(1 0 0 1 0 0)"/>
  <path d="m54.19,313.69c-0.97,0.52 -1.18,2.03 -0.46,3.38s2.09,2.01 3.06,1.49l45.88,-24.49c0.97,-0.52 1.18,-2.03 0.46,-3.38s-2.1,-2.01 -3.07,-1.49l-45.87,24.49z" fill="#fac600" id="svg_36" transform="matrix(1 0 0 1 0 0)"/>
  <path d="m689.33,487.58a1,1 0 0 0 -1.37,0.35l-53.92,91.26a1,1 0 0 0 0.35,1.36l68.87,40.7a1,1 0 0 0 1.37,-0.35l53.93,-91.25a1,1 0 0 0 -0.35,-1.37l-68.88,-40.7z" fill="#bdbcbc" id="svg_37" transform="matrix(1 0 0 1 0 0)"/>
  <path d="m911.06,602.77l-49.35,83.51l61.13,36.12l49.35,-83.51l-61.13,-36.12zm-3.87,-2.29l0.01,0.01l-0.01,-0.01z" fill="#fff" id="svg_38" transform="translate(-220.65155 -108.1713)"/>
  <path d="m690.58,512.98c-0.95,-0.56 -2.35,0.05 -3.12,1.36s-0.64,2.84 0.31,3.4l44.77,26.46c0.95,0.56 2.35,-0.06 3.13,-1.37s0.63,-2.83 -0.32,-3.39l-44.77,-26.46z" fill="#fac600" id="svg_39" transform="matrix(1 0 0 1 0 0)"/>
  <path d="m684.48,523.31c-0.95,-0.56 -2.35,0.05 -3.13,1.36s-0.63,2.84 0.32,3.4l44.76,26.46c0.95,0.56 2.36,-0.05 3.13,-1.37s0.64,-2.83 -0.31,-3.39l-44.77,-26.46z" fill="#fac600" id="svg_40" transform="matrix(1 0 0 1 0 0)"/>
  <path d="m678.37,533.64c-0.95,-0.56 -2.35,0.05 -3.12,1.37s-0.64,2.83 0.31,3.39l44.77,26.46c0.95,0.56 2.35,-0.05 3.13,-1.36s0.63,-2.84 -0.32,-3.4l-44.77,-26.46z" fill="#fac600" id="svg_41" transform="matrix(1 0 0 1 0 0)"/>
  <path d="m672.27,543.97c-0.95,-0.56 -2.35,0.05 -3.13,1.37s-0.63,2.83 0.32,3.39l44.76,26.46c0.95,0.56 2.36,-0.05 3.13,-1.36s0.64,-2.84 -0.31,-3.4l-44.77,-26.46z" fill="#fac600" id="svg_42" transform="matrix(1 0 0 1 0 0)"/>
  <path d="m666.16,554.31c-0.95,-0.57 -2.35,0.05 -3.12,1.36s-0.64,2.83 0.31,3.39l44.77,26.46c0.95,0.56 2.35,-0.05 3.13,-1.36s0.63,-2.84 -0.32,-3.4l-44.77,-26.45z" fill="#fac600" id="svg_43" transform="matrix(1 0 0 1 0 0)"/>
  <path d="m660.06,564.64c-0.95,-0.57 -2.35,0.05 -3.13,1.36s-0.63,2.83 0.32,3.4l44.76,26.45c0.95,0.56 2.36,-0.05 3.13,-1.36s0.64,-2.84 -0.31,-3.4l-44.77,-26.45z" fill="#fac600" id="svg_44" transform="matrix(1 0 0 1 0 0)"/>
  <path d="m661.26,429.67l-1.04,6.44l-10.96,67.56l-6.88,21.97l-2.42,7.73l-2.03,6.5l-24.67,78.8l-6.76,15.9a18.99,18.99 0 1 0 22.21,7.02l48.28,-112.33l1.79,-3.84l5.48,-11.75l10.35,-78.09l0.65,-4.91l-34,-1z" fill="#ffb8b8" id="svg_45" transform="translate(-220.65155 -108.1713)"/>
  <path d="m480.61,329.5c-15.71,-5.65 -30.79,-6.25 -45,0l4.64,-40.19a19.17,19.17 0 0 1 18.15,-19.8l0,0a19.17,19.17 0 0 1 20.16,18.14l0,0.06l2.05,41.79z" fill="#fac600" id="svg_46" transform="matrix(1 0 0 1 0 0)"/>
 </g>
</svg>