<?xml version="1.0"?>
<svg width="511.3611" height="550.5564" xmlns="http://www.w3.org/2000/svg" xmlns:svg="http://www.w3.org/2000/svg">
 <g class="layer">
  <title>Layer 1</title>
  <path d="m622.71,251.78c21.62,-15.97 52.07,-22.1 75.89,-9.63a123.86,123.86 0 0 0 -61.64,58.58c-4.97,10.12 -9.45,21.9 -19.71,26.57c-6.38,2.91 -13.92,2.35 -20.53,0c-6.61,-2.35 -12.49,-6.34 -18.28,-10.29l-1.74,-0.21c10.32,-24.82 24.39,-49.04 46.01,-65.02z" fill="rgb(182, 217, 59)" id="svg_1" transform="matrix(1, 0, 0, 1, -274.0936584472656, -174.3448028564453)"/>
  <path d="m698.41,242.68a105.87,105.87 0 0 0 -61.32,21.97a45.59,45.59 0 0 0 -9.99,10.21a26.15,26.15 0 0 0 -4.32,13.06c-0.31,4.35 -0.13,8.83 -1.5,13.02a16.01,16.01 0 0 1 -8.93,9.57c-5.13,2.32 -10.78,2.65 -16.32,2.79c-6.15,0.15 -12.54,0.21 -18.13,3.11c-0.68,0.35 -1.18,-0.72 -0.51,-1.07c9.73,-5.04 21.11,-1.75 31.33,-4.75c4.77,-1.4 9.15,-4.25 11.07,-9.01c1.68,-4.16 1.49,-8.78 1.77,-13.18a27.9,27.9 0 0 1 3.74,-12.94a42.15,42.15 0 0 1 9.56,-10.55a102.71,102.71 0 0 1 27.8,-16.07a107.75,107.75 0 0 1 35.85,-7.34c0.76,-0.03 0.65,1.15 -0.1,1.18z" fill="#fff" id="svg_2" transform="matrix(1, 0, 0, 1, -274.0936584472656, -174.3448028564453)"/>
  <path d="m642.5,259.94a15.88,15.88 0 0 1 3.73,-20.23c0.6,-0.48 1.37,0.42 0.78,0.9a14.71,14.71 0 0 0 -3.44,18.82c0.39,0.66 -0.69,1.16 -1.07,0.51z" fill="#fff" id="svg_3" transform="matrix(1, 0, 0, 1, -274.0936584472656, -174.3448028564453)"/>
  <path d="m622.65,285.7a30.61,30.61 0 0 0 22.2,-2.24c0.68,-0.34 1.19,0.73 0.51,1.08a31.84,31.84 0 0 1 -23.11,2.28c-0.73,-0.21 -0.33,-1.33 0.4,-1.12z" fill="#fff" id="svg_4" transform="matrix(1, 0, 0, 1, -274.0936584472656, -174.3448028564453)"/>
  <path d="m674.05,245.94a8.99,8.99 0 0 0 6.18,5.87c0.74,0.2 0.33,1.32 -0.4,1.12a10.08,10.08 0 0 1 -6.86,-6.49a0.61,0.61 0 0 1 0.29,-0.79a0.6,0.6 0 0 1 0.79,0.29z" fill="#fff" id="svg_5" transform="matrix(1, 0, 0, 1, -274.0936584472656, -174.3448028564453)"/>
  <path d="m717.48,331.19c-0.46,-0.11 -0.92,-0.22 -1.39,-0.33a118.41,118.41 0 0 0 -19,-2.83c-0.5,-0.04 -1,-0.07 -1.49,-0.1a124.83,124.83 0 0 0 -45.58,5.91a121.22,121.22 0 0 0 -17.03,7.02c-7.58,3.83 -15.49,8.58 -23.65,9.65a20.8,20.8 0 0 1 -2.57,0.2l-30.19,-31.77c-0.04,-0.11 -0.08,-0.21 -0.11,-0.32l-1.26,-1.21c0.27,-0.16 0.56,-0.32 0.83,-0.49c0.16,-0.09 0.32,-0.18 0.48,-0.27c0.11,-0.07 0.22,-0.13 0.31,-0.19c0.04,-0.02 0.07,-0.04 0.1,-0.05c0.09,-0.06 0.19,-0.11 0.27,-0.16q2.41,-1.38 4.83,-2.72c0.01,-0.01 0.01,-0.01 0.02,-0.01c12.36,-6.78 25.39,-12.6 38.88,-16.25c0.41,-0.11 0.82,-0.23 1.24,-0.32a115.67,115.67 0 0 1 18.58,-3.33a102.26,102.26 0 0 1 10.34,-0.43a85.04,85.04 0 0 1 26.22,4.45c16.84,5.67 31.68,16.67 39.58,32.34c0.2,0.41 0.4,0.8 0.59,1.21z" fill="rgb(182, 217, 59)" id="svg_6" transform="matrix(1, 0, 0, 1, -274.0936584472656, -174.3448028564453)"/>
  <path d="m717.01,331.5a105.87,105.87 0 0 0 -62.18,-19.38a45.59,45.59 0 0 0 -14.13,2.14a26.15,26.15 0 0 0 -11.31,7.84c-2.87,3.28 -5.42,6.96 -9.03,9.49a16.01,16.01 0 0 1 -12.9,2.26c-5.49,-1.24 -10.2,-4.37 -14.71,-7.6c-5,-3.58 -10.14,-7.38 -16.35,-8.43c-0.75,-0.13 -0.51,-1.29 0.24,-1.16c10.81,1.83 17.91,11.3 27.88,15.07c4.65,1.75 9.86,2.12 14.26,-0.53c3.84,-2.32 6.48,-6.11 9.35,-9.46a27.9,27.9 0 0 1 10.78,-8.08a42.15,42.15 0 0 1 13.98,-2.67a102.71,102.71 0 0 1 31.87,3.91a107.75,107.75 0 0 1 33.05,15.72c0.62,0.44 -0.18,1.32 -0.8,0.88z" fill="#fff" id="svg_7" transform="matrix(1, 0, 0, 1, -274.0936584472656, -174.3448028564453)"/>
  <path d="m661.99,311.62a15.88,15.88 0 0 1 15.15,-13.9c0.76,-0.03 0.84,1.16 0.08,1.18a14.71,14.71 0 0 0 -14.07,12.96c-0.1,0.76 -1.25,0.52 -1.16,-0.24z" fill="#fff" id="svg_8" transform="matrix(1, 0, 0, 1, -274.0936584472656, -174.3448028564453)"/>
  <path d="m630.63,320.24a30.61,30.61 0 0 0 19.07,11.58c0.75,0.13 0.51,1.29 -0.24,1.16a31.84,31.84 0 0 1 -19.83,-12.09c-0.46,-0.6 0.54,-1.25 1,-0.65z" fill="#fff" id="svg_9" transform="matrix(1, 0, 0, 1, -274.0936584472656, -174.3448028564453)"/>
  <path d="m695.6,319.44a8.99,8.99 0 0 0 1.4,8.41c0.47,0.6 -0.53,1.25 -0.99,0.65a10.08,10.08 0 0 1 -1.57,-9.31a0.61,0.61 0 0 1 0.7,-0.45a0.6,0.6 0 0 1 0.46,0.7z" fill="#fff" id="svg_10" transform="matrix(1, 0, 0, 1, -274.0936584472656, -174.3448028564453)"/>
  <path d="m617.01,275.55l-2.34,0l0,-64.11a37.1,37.1 0 0 0 -37.1,-37.1l-135.81,0a37.1,37.1 0 0 0 -37.1,37.1l0,351.67a37.1,37.1 0 0 0 37.1,37.1l135.81,0a37.1,37.1 0 0 0 37.1,-37.1l0,-241.94l2.34,0l0,-45.62z" fill="#3f3d56" id="svg_11" transform="matrix(1, 0, 0, 1, -274.0936584472656, -174.3448028564453)"/>
  <path d="m579.06,184l-17.72,0a13.16,13.16 0 0 1 -12.19,18.13l-77.8,0a13.16,13.16 0 0 1 -12.19,-18.13l-16.56,0a27.71,27.71 0 0 0 -27.7,27.7l0,351.15a27.71,27.71 0 0 0 27.7,27.7l136.46,0a27.71,27.71 0 0 0 27.71,-27.7l0,0l0,-351.15a27.71,27.71 0 0 0 -27.71,-27.7z" fill="#fff" id="svg_12" transform="matrix(1, 0, 0, 1, -274.0936584472656, -174.3448028564453)"/>
  <path d="m239.36,303.41a76.43,76.43 0 0 1 -76.5,-76.5a76.39,76.39 0 0 1 41.76,-68.16a76.66,76.66 0 0 1 59.41,-4.27a76.51,76.51 0 0 1 -24.67,148.93zm0,-150a72.69,72.69 0 0 0 -33.37,8.01a73.5,73.5 0 1 0 76.42,125.06a72.85,72.85 0 0 0 10.96,-9.72a73.47,73.47 0 0 0 -54.01,-123.35z" fill="#bdbcbc" id="svg_13"/>
  <path d="m347.69,333.36a14.48,14.48 0 0 1 12.02,18.66l25.42,21.17l-9.1,18.59l-35.47,-30.41a14.55,14.55 0 0 1 7.13,-28.01z" fill="#ffb6b6" id="svg_14" transform="matrix(1, 0, 0, 1, -274.0936584472656, -174.3448028564453)"/>
  <path d="m310.98,247.31c-0.51,-5.48 -2.61,-15.33 -4.4,-18.97c-5.5,-14.39 -41.02,-26.21 -45.79,-27.74l-1.21,-13.45l-49.35,-5.31l-6.26,17.2l-17.7,6.64a8.69,8.69 0 0 0 -5.18,5.31l0,0l-15.88,4.59l-15.67,4.53l-54.44,-38.36l-2.57,1.68l-17.18,11.21l-2.65,1.73l70.45,63.56l26.17,-6.14l19.68,-4.63l1.68,6.82l-4.35,23.96a74.98,74.98 0 0 0 96.96,7.75l11.18,-9.92a74.89,74.89 0 0 0 16.81,-29.53l-0.3,-0.93z" fill="#fac600" id="svg_15" transform="matrix(1 0 0 1 0 0)"/>
  <circle cx="513.34" cy="311.45" fill="#ffb6b6" id="svg_16" r="35.53" transform="matrix(0.9493200778961183, -0.3143100142478943, 0.3143100142478943, 0.9493200778961183, -345.9699453409007, 2.7890601573744505)"/>
  <path d="m485.27,270.94a23.98,23.98 0 0 1 14.52,-9.67a22.9,22.9 0 0 1 16.89,3.1c5.45,-2.2 11.33,-3.66 17.1,-2.91s11.44,3.96 14.11,9.28a25.37,25.37 0 0 0 2.04,3.96c2.35,3.14 6.73,3.54 10.59,3.69q-2.93,1.71 -5.86,3.42q2.92,1.36 5.84,2.73q-3.97,1.51 -7.95,3.03c6.17,5.42 7.66,15.07 5.33,23.16c-2.21,7.66 -7.28,14.11 -12.94,19.63c-1.11,-4.12 0.11,-8.58 0.91,-12.85c0.86,-4.5 1,-9.77 -2.16,-12.95c-2.13,-2.15 -5.25,-2.8 -8.19,-3.32a397.69,397.69 0 0 0 -44.89,-5.33a12.7,12.7 0 0 0 -5.98,0.61c-3.67,1.63 -5.14,6.1 -6.2,10.06a79.78,79.78 0 0 1 1.21,-20.8c1,-5.24 2.59,-10.49 5.63,-14.84z" fill="#2f2e41" id="svg_17" transform="matrix(1, 0, 0, 1, -274.0936584472656, -174.3448028564453)"/>
  <path d="m257.36,339.46l-42,0a5.5,5.5 0 0 1 0,-11l42,0a5.5,5.5 0 0 1 0,11z" fill="#06426a" id="svg_18"/>
  <path d="m119.55,45.13l-115.53,0a4.02,4.02 0 0 1 0,-8.04l115.53,0a4.02,4.02 0 0 1 0,8.04z" fill="#06426a" id="svg_19" transform="matrix(1 0 0 1 0 0)"/>
  <path d="m186.25,70.79l-182.23,0a4.02,4.02 0 0 1 0,-8.03l182.23,0a4.02,4.02 0 1 1 0,8.03z" fill="#06426a" id="svg_20"/>
  <path d="m151.23,94.97l-147.21,0a4.02,4.02 0 1 1 0,-8.04l147.21,0a4.02,4.02 0 1 1 0,8.04z" fill="#00abc8" id="svg_21" transform="matrix(1 0 0 1 0 0)"/>
  <path d="m87.03,119.06l-83.01,0a4.02,4.02 0 1 1 0,-8.04l83.01,0a4.02,4.02 0 1 1 0,8.04z" fill="#00abc8" id="svg_22"/>
  <path d="m132.89,143.15l-128.87,0a4.02,4.02 0 0 1 0,-8.04l128.87,0a4.02,4.02 0 0 1 0,8.04z" fill="#00abc8" id="svg_23"/>
  <polygon fill="#9f616a" id="svg_24" points="496.06 536.227 485.706 536.226 480.78 496.288 496.062 496.289 496.06 536.227"/>
  <path d="m774.23,724.9l-39.53,0l0,-0.5a15.39,15.39 0 0 1 15.38,-15.39l0,0l7.22,-5.47l13.48,5.47l3.45,0l0,15.89z" fill="#2f2e41" id="svg_25" transform="matrix(1, 0, 0, 1, -274.0936584472656, -174.3448028564453)"/>
  <path d="m764.12,522.87l-4.57,-55.68l-3.58,-20.9l20.08,-4.43l6.67,28.61l-5.81,53.95a9.29,9.29 0 1 1 -12.79,-1.55z" fill="#9f616a" id="svg_26" transform="matrix(1, 0, 0, 1, -274.0936584472656, -174.3448028564453)"/>
  <polygon fill="#9f616a" id="svg_27" points="441.06 536.227 430.706 536.226 425.78 496.288 441.062 496.289 441.06 536.227"/>
  <path d="m698.58,535.49l-4.59,7.94s-5.04,1.38 -3.39,17.82s1.72,113.85 9.7,125.84l1.44,10.29l15.07,1.44l0.38,-9.13l17.96,-126.89s10.58,124.56 19.34,127.61l3.16,10.38l13.8,0.01l-0.81,-12.23l0.89,-154.36l-72.95,1.28z" fill="#2f2e41" id="svg_28" transform="matrix(1, 0, 0, 1, -274.0936584472656, -174.3448028564453)"/>
  <path d="m480.82,240.11l9.02,-3.93l11.89,14.58l9.63,46.7l-33,-5l2.46,-52.35z" fill="#fac600" id="svg_30"/>
  <path d="m616.15,500.56l41.24,-37.69l14.34,-15.62l15.8,13.17l-18.55,22.78l-46.22,28.42a9.29,9.29 0 1 1 -6.61,-11.06z" fill="#9f616a" id="svg_31" transform="matrix(1, 0, 0, 1, -274.0936584472656, -174.3448028564453)"/>
  <path d="m382.41,288.94l11.42,-14.83c0.09,-0.21 9.57,-21.39 17.78,-30.59c8.43,-9.44 15.06,-4.61 15.13,-4.56l0.17,0.12l0.45,34.86l-31.62,37.79l-13.33,-22.79z" fill="#fac600" id="svg_32" transform="matrix(1 0 0 1 0 0)"/>
  <circle cx="725.87" cy="365.85" fill="#9f616a" id="svg_33" r="19.25" transform="matrix(0.1601823999369508, -0.9870874321712535, 0.9870874321712535, 0.1601823999369508, -25.61730995204016, 849.3991337507834)"/>
  <path d="m708.27,362.99s-0.15,-6.77 -1.01,-9.76s-2.56,-5.56 -1.71,-5.56s1.28,-2.14 1.28,-2.14s0.86,-0.43 1.29,0s0.85,-3 0.85,-3s0.43,-1.28 0.86,-0.43s0.43,0.43 0.85,-0.85s2.57,-2.14 2.57,-2.14s8.13,0.43 9.41,-1.28s15.83,-0.43 18.83,1.71s16.25,9.84 14.11,16.25s-8.29,21.2 -9.84,22.68c-2.44,2.34 -4.13,3.18 -15.67,5.48c-2.26,0.45 -13.79,-6.92 -13.79,-8.21s1.39,-5.35 -0.85,-5.91c-3.38,-0.84 -3.76,3.43 -4.61,2.14s-2.57,-8.98 -2.57,-8.98z" fill="#2f2e41" id="svg_34" transform="matrix(1, 0, 0, 1, -274.0936584472656, -174.3448028564453)"/>
  <path d="m719.23,724.9l-39.53,0l0,-0.5a15.39,15.39 0 0 1 15.38,-15.39l0,0l7.22,-5.47l13.48,5.47l3.45,0l0,15.89z" fill="#2f2e41" id="svg_35" transform="matrix(1, 0, 0, 1, -274.0936584472656, -174.3448028564453)"/>
  <path d="m415.45,371.49l-0.32,-0.08c9.47,-35.44 6.74,-81.33 0.05,-130.6l0,-0.2l24.18,-22.15l21,0l20.82,13.43c13.46,6.73 16.52,20.98 16.55,21.12l0.02,0.1l-8.25,28.79l6.22,83.24l0,0.1l-0.03,0.09c-2.01,5.1 -7.4,4.37 -13.64,3.53c-6.23,-0.84 -29.17,6.84 -36.21,6.84c-13.75,0 -29.41,-3.96 -30.39,-4.21z" fill="#06426a" id="svg_29"/>
 </g>
</svg>