<?xml version="1.0"?>
<svg width="550.59998" height="412.44495" xmlns="http://www.w3.org/2000/svg" xmlns:svg="http://www.w3.org/2000/svg">
 <g class="layer">
  <title>Layer 1</title>
  <path d="m550.6,411.25c0,0.66 -0.53,1.19 -1.19,1.19l-548.22,0c-0.66,0 -1.19,-0.53 -1.19,-1.19s0.53,-1.19 1.19,-1.19l548.22,0c0.66,0 1.19,0.53 1.19,1.19z" fill="#2e2e43" id="svg_1" stroke-width="0"/>
  <path d="m436.66,84.78l-322.58,0c-4.46,0 -8.09,-3.62 -8.09,-8.08l0,-24.85c0,-4.46 3.63,-8.09 8.09,-8.09l322.58,0c4.46,0 8.08,3.63 8.08,8.09l0,24.85c0,4.46 -3.62,8.08 -8.08,8.08z" fill="#bdbcbc" id="svg_2" stroke="#bab7c9" stroke-linecap="round" stroke-linejoin="round" stroke-width="2"/>
  <path d="m436.66,237.99l-322.58,0c-4.46,0 -8.09,-3.63 -8.09,-8.09l0,-24.85c0,-4.46 3.63,-8.08 8.09,-8.08l322.58,0c4.46,0 8.08,3.62 8.08,8.08l0,24.85c0,4.46 -3.62,8.09 -8.08,8.09z" fill="#bdbcbc" id="svg_3" stroke="#bab7c9" stroke-linecap="round" stroke-linejoin="round" stroke-width="2"/>
  <path d="m207.66,347.99l-94.58,0c-4.46,0 -8.09,-3.63 -8.09,-8.09l0,-24.85c0,-4.46 3.63,-8.08 8.09,-8.08l94.58,0c4.46,0 8.08,3.62 8.08,8.08l0,24.85c0,4.46 -3.62,8.09 -8.08,8.09z" fill="#fac600" id="svg_4" stroke-width="0" transform="matrix(1 0 0 1 0 0)"/>
  <line fill="none" id="svg_5" stroke="#bab7c9" stroke-linecap="round" stroke-linejoin="round" stroke-width="2" x1="106.7" x2="177.45" y1="1" y2="1"/>
  <line fill="none" id="svg_6" stroke="#bab7c9" stroke-linecap="round" stroke-linejoin="round" stroke-width="2" x1="106.7" x2="238.12" y1="154.21" y2="154.21"/>
  <rect fill="#f1a1a4" height="18.73" id="svg_7" stroke-width="0" transform="translate(-141.44328 273.52017) rotate(-32.59)" width="13.2" x="390.51" y="369.32"/>
  <polygon fill="#f1a1a4" id="svg_8" points="362.34782 155.10185 348.29375 159.90111 348.07325 139.60802 360.86264 139.46533 362.34782 155.10185" stroke-width="0"/>
  <circle cx="349.71" cy="131.16" fill="#f1a1a4" id="svg_9" r="14.05" stroke-width="0"/>
  <path d="m353.56,129.72c-2.35,-0.04 -3.92,-2.4 -4.86,-4.56c-0.94,-2.15 -1.91,-4.65 -4.1,-5.52c-1.79,-0.71 -4.87,4.27 -6.3,2.97c-1.49,-1.36 -0.13,-8.44 1.42,-9.72s3.68,-1.55 5.67,-1.67c4.9,-0.28 9.82,0.06 14.64,1.01c2.97,0.59 6.04,1.49 8.2,3.61c2.74,2.69 3.48,6.79 3.72,10.62c0.24,3.93 0.05,8.04 -1.81,11.5c-1.88,3.46 -5.84,6.03 -9.69,5.2c-0.4,-2.08 -0.04,-4.21 0.09,-6.34c0.13,-2.11 -0.06,-4.4 -1.37,-6.07s-4.07,-2.31 -5.56,-0.8" fill="#2f2e43" id="svg_10" stroke-width="0"/>
  <path d="m370.9,134.4c1.4,-1.04 3.06,-1.93 4.79,-1.73c1.88,0.2 3.47,1.73 3.97,3.55s-0.02,3.82 -1.15,5.33s-2.84,2.5 -4.66,3.01c-1.05,0.3 -2.2,0.42 -3.21,0c-1.48,-0.62 -2.3,-2.49 -1.74,-4.01" fill="#2f2e43" id="svg_11" stroke-width="0"/>
  <path d="m318.6,267.17c-0.88,4.63 0.88,8.83 3.94,9.38c3.05,0.55 6.25,-2.76 7.14,-7.38c0.38,-1.84 0.3,-3.75 -0.25,-5.56l10.82,-72.48l-14.57,-2.57l-4.79,73.52c-1.18,1.5 -1.96,3.25 -2.29,5.11l0,0l0,-0.02l0,0z" fill="#f1a1a4" id="uuid-31bdf68e-d938-48b7-86ad-7ba8e8b265d3-91-89-41-659" stroke-width="0"/>
  <path d="m348.03,150.59l-9.92,0.11c-7,1.13 -8.86,4.9 -10.38,11.83c-2.31,10.56 -5.27,24.64 -4.65,24.84c1,0.32 17.97,8.08 26.56,6.16l-1.6,-42.94l-0.01,0z" fill="#fac600" id="svg_12" stroke-width="0"/>
  <rect fill="#f1a1a4" height="18.73" id="svg_13" stroke-width="0" transform="translate(-4.33864 3.97541) rotate(-.64)" width="13.2" x="347.12" y="381.03"/>
  <path d="m334.46,411.32c-1.39,0.02 -2.62,0 -3.55,-0.07c-3.52,-0.28 -6.88,-2.84 -8.59,-4.33c-0.77,-0.67 -1.02,-1.76 -0.64,-2.69l0,0c0.28,-0.67 0.83,-1.18 1.53,-1.4l9.25,-2.75l14.89,-10.29l0.17,0.3c0.07,0.11 1.57,2.75 2.08,4.54c0.2,0.68 0.16,1.25 -0.13,1.69c-0.19,0.3 -0.46,0.48 -0.68,0.59c0.27,0.28 1.13,0.85 3.76,1.24c3.82,0.57 4.6,-3.41 4.62,-3.58l0.03,-0.13l0.11,-0.08c1.81,-1.2 2.92,-1.74 3.31,-1.63c0.24,0.06 0.64,0.19 1.84,10.98c0.11,0.34 0.91,2.81 0.41,5.2c-0.53,2.6 -11.85,1.82 -14.1,1.65c-0.07,0.01 -8.52,0.71 -14.32,0.76l0.02,0l-0.01,0l0,0z" fill="#2f2e43" id="svg_14" stroke-width="0"/>
  <path d="m383.21,408.21c-1.55,0.02 -2.98,-0.15 -3.99,-0.32c-1,-0.17 -1.79,-0.96 -1.96,-1.96l0,0c-0.13,-0.72 0.08,-1.44 0.56,-1.98l6.38,-7.22l7.18,-16.62l0.31,0.16c0.11,0.06 2.78,1.51 4.17,2.75c0.52,0.47 0.79,0.97 0.79,1.51c0,0.36 -0.14,0.66 -0.27,0.86c0.38,0.09 1.4,0.12 3.84,-0.94c3.55,-1.55 2.1,-5.33 2.03,-5.48l-0.05,-0.13l0.06,-0.12c0.9,-1.97 1.56,-3.02 1.95,-3.14c0.24,-0.06 0.64,-0.19 7.38,8.34c0.27,0.22 2.25,1.9 3.1,4.19c0.91,2.48 -9.08,7.81 -11.11,8.86c-0.06,0.05 -10.5,7.81 -14.8,10.03c-1.7,0.89 -3.73,1.18 -5.58,1.19l0.02,0.02l-0.01,0l0,0z" fill="#2f2e43" id="svg_15" stroke-width="0"/>
  <path d="m368.18,224.19l-36.97,0.4l-2.97,34.43l16.09,126.91l18.87,-0.22l-8.36,-73.3l31.35,65.92l16.65,-11.93l-24.6,-61.6s7.95,-53.99 1.09,-67.33c-6.86,-13.35 -11.15,-13.3 -11.15,-13.3l0,0.02l0,0l0,0z" fill="#2f2e43" id="svg_16" stroke-width="0"/>
  <polygon fill="#06426a" id="svg_17" points="386.58409 226.07905 327.87095 226.73407 344.64242 150.63335 370.22768 150.34149 386.58409 226.07905" stroke-width="0" transform="matrix(1 0 0 1 0 0)"/>
  <path d="m392.32,266.35c0.98,4.62 -0.68,8.85 -3.73,9.47c-3.04,0.62 -6.31,-2.62 -7.29,-7.23c-0.42,-1.83 -0.38,-3.74 0.12,-5.56l-12.43,-72.23l14.5,-2.89l6.43,73.4c1.2,1.48 2.03,3.21 2.4,5.06l0,0l0,-0.02z" fill="#f1a1a4" id="uuid-0d1d7be6-7e67-43a2-9b15-a4bbed67d7bc-92-90-42-660" stroke-width="0"/>
  <path d="m360.31,150.45l9.92,-0.11c7.03,0.99 8.97,4.71 10.65,11.6c2.55,10.52 5.81,24.52 5.2,24.73c-0.99,0.34 -17.78,8.47 -26.41,6.75l0.65,-42.97l-0.01,0z" fill="#fac600" id="svg_18" stroke-width="0" transform="matrix(1 0 0 1 0 0)"/>
 </g>
</svg>