<?xml version="1.0"?>
<svg width="695.96166" height="624.8455" xmlns="http://www.w3.org/2000/svg" xmlns:svg="http://www.w3.org/2000/svg" data-name="Layer 1">
 <g class="layer">
  <title>Layer 1</title>
  <path d="m680.5,569.82c-6.08,21.08 -23.83,35.84 -42.34,48.38q-3.88,2.63 -7.76,5.14c-0.02,0 -0.03,0.02 -0.05,0.03c-0.13,0.08 -0.25,0.16 -0.37,0.24c-0.53,0.34 -1.07,0.69 -1.59,1.03l0.29,0.13s0.28,0.15 -0.03,0.02c-0.09,-0.04 -0.19,-0.07 -0.28,-0.11c-10.76,-4.34 -21.7,-9 -29.95,-17.12c-8.55,-8.44 -13.54,-21.67 -8.91,-32.76a21.16,21.16 0 0 1 2.29,-4.11c0.37,-0.54 0.78,-1.05 1.2,-1.56a22.69,22.69 0 0 1 38.96,6.89c1.36,-12.66 -9.08,-23.27 -19.13,-31.09c-10.05,-7.83 -21.47,-16.34 -23.42,-28.94c-1.08,-7 1.35,-13.79 5.79,-19.24c0.14,-0.17 0.28,-0.34 0.42,-0.5a33.11,33.11 0 0 1 21.28,-11.41c15.41,-1.6 30.39,6.55 41.58,17.27c18.03,17.25 28.93,43.73 22.02,67.71z" fill="#00bf5f" id="svg_1"/>
  <path d="m903.54,679.82a56.28,56.28 0 0 1 6.74,14.87a48.87,48.87 0 0 1 1.69,14.43a62.61,62.61 0 0 1 -8.2,28.5a90.11,90.11 0 0 1 -13.59,18.16q-3.88,2.63 -7.76,5.14c-0.02,0 -0.03,0.02 -0.05,0.03c-0.13,0.08 -0.25,0.16 -0.37,0.24c-0.53,0.34 -1.07,0.69 -1.59,1.03c0,0 0.57,0.28 0.26,0.15c-0.09,-0.04 -0.19,-0.07 -0.28,-0.11a49.81,49.81 0 0 0 -15.94,-42.89a50.24,50.24 0 0 0 -20.63,-11.1c0.37,-0.54 0.78,-1.05 1.2,-1.56a52.09,52.09 0 0 1 8.6,3.26a51.04,51.04 0 0 1 23.08,22.24a52.18,52.18 0 0 1 5.68,28.64c0.44,-0.4 0.88,-0.81 1.31,-1.22c8.17,-7.61 15.43,-16.36 20.34,-26.45a58.25,58.25 0 0 0 6.1,-27.56c-0.4,-10.41 -4.55,-20.06 -10.55,-28.45a121.93,121.93 0 0 0 -23.11,-23.82a138.54,138.54 0 0 0 -28.75,-17.75a1,1 0 0 1 -0.5,-1.27a0.85,0.85 0 0 1 0.42,-0.5a0.74,0.74 0 0 1 0.64,0.03c1.27,0.58 2.52,1.18 3.77,1.79a140.12,140.12 0 0 1 28.95,19.1c8.52,7.26 16.55,15.56 22.54,25.07z" fill="#fff" id="svg_2" transform="translate(-252.01917 -137.57725)"/>
  <path d="m56.97,569.61l68.98,0l34.49,-59.73l-34.49,-59.74l-68.98,0l-34.49,59.74l34.49,59.73z" fill="#bdbcbc" id="svg_3" transform="matrix(1 0 0 1 0 0)"/>
  <path d="m56.97,353.61l68.98,0l34.49,-59.73l-34.49,-59.74l-68.98,0l-34.49,59.74l34.49,59.73z" fill="#bdbcbc" id="svg_4"/>
  <path d="m56.97,139.61l68.98,0l34.49,-59.73l-34.49,-59.74l-68.98,0l-34.49,59.74l34.49,59.73z" fill="#bdbcbc" id="svg_5"/>
  <path d="m134.69,159.76l-86.46,0a5.01,5.01 0 0 1 -4.33,-2.5l-43.23,-74.88a5.01,5.01 0 0 1 0,-5l43.23,-74.88a5.01,5.01 0 0 1 4.33,-2.5l86.46,0a5.01,5.01 0 0 1 4.33,2.5l43.23,74.88a5.01,5.01 0 0 1 0,5l-43.23,74.88a5.01,5.01 0 0 1 -4.33,2.5zm-86.46,-157.76a3.01,3.01 0 0 0 -2.6,1.5l-43.23,74.88a3.01,3.01 0 0 0 0,3l43.23,74.88a3.01,3.01 0 0 0 2.6,1.5l86.46,0a3.01,3.01 0 0 0 2.6,-1.5l43.23,-74.88a3.01,3.01 0 0 0 0,-3l-43.23,-74.88a3.01,3.01 0 0 0 -2.6,-1.5l-86.46,0z" fill="#bdbcbc" id="svg_6" transform="matrix(1 0 0 1 0 0)"/>
  <path d="m134.69,374.8l-86.46,0a5.01,5.01 0 0 1 -4.33,-2.5l-43.23,-74.88a5.01,5.01 0 0 1 0,-5l43.23,-74.88a5.01,5.01 0 0 1 4.33,-2.5l86.46,0a5.01,5.01 0 0 1 4.33,2.5l43.23,74.88a5.01,5.01 0 0 1 0,5l-43.23,74.88a5.01,5.01 0 0 1 -4.33,2.5zm-86.46,-157.76a3.01,3.01 0 0 0 -2.6,1.5l-43.23,74.88a3.01,3.01 0 0 0 0,3l43.23,74.88a3.01,3.01 0 0 0 2.6,1.5l86.46,0a3.01,3.01 0 0 0 2.6,-1.5l43.23,-74.88a3.01,3.01 0 0 0 0,-3l-43.23,-74.88a3.01,3.01 0 0 0 -2.6,-1.5l-86.46,0z" fill="#bdbcbc" id="svg_7" transform="matrix(1 0 0 1 0 0)"/>
  <path d="m134.69,589.84l-86.46,0a5.01,5.01 0 0 1 -4.33,-2.5l-43.23,-74.88a5.01,5.01 0 0 1 0,-5l43.23,-74.88a5.01,5.01 0 0 1 4.33,-2.5l86.46,0a5.01,5.01 0 0 1 4.33,2.5l43.23,74.88a5.01,5.01 0 0 1 0,5l-43.23,74.88a5.01,5.01 0 0 1 -4.33,2.5zm-86.46,-157.76a3.01,3.01 0 0 0 -2.6,1.5l-43.23,74.88a3.01,3.01 0 0 0 0,3l43.23,74.88a3.01,3.01 0 0 0 2.6,1.5l86.46,0a3.01,3.01 0 0 0 2.6,-1.5l43.23,-74.88a3.01,3.01 0 0 0 0,-3l-43.23,-74.88a3.01,3.01 0 0 0 -2.6,-1.5l-86.46,0z" fill="#bdbcbc" id="svg_8"/>
  <path d="m91.46,260.9a32.98,32.98 0 1 0 32.98,32.98a32.98,32.98 0 0 0 -32.98,-32.98zm0,9.89a9.89,9.89 0 1 1 -9.89,9.9a9.89,9.89 0 0 1 9.89,-9.9zm0,47.63a24.02,24.02 0 0 1 -19.79,-10.56c0.16,-6.6 13.19,-10.23 19.79,-10.23s19.63,3.63 19.79,10.23a24.06,24.06 0 0 1 -19.79,10.56z" fill="#ffffff" id="svg_9" transform="matrix(1 0 0 1 0 0)"/>
  <path d="m91.4,56.9a18,18 0 1 0 -26.06,24.86q0.29,0.31 0.6,0.6l26.07,26.07l25.45,-25.46a18.44,18.44 0 0 0 -26.06,-26.07z" fill="#bf0000" id="svg_10" transform="matrix(1 0 0 1 0 0)"/>
  <path d="m112.7,489.9c0,11.73 -21.24,37.47 -21.24,37.47s-21.23,-25.74 -21.23,-37.47a21.24,21.24 0 1 1 42.47,-0.04l0,0.04z" fill="#007f00" id="svg_11" transform="matrix(1 0 0 1 0 0)"/>
  <circle cx="91.46" cy="489.9" fill="#bdbcbc" id="svg_12" r="8.34"/>
  <circle cx="90.7" cy="542.77" fill="#007f00" id="svg_13" r="8.34" transform="matrix(1 0 0 1 0 0)"/>
  <path d="m749.03,369.02c-7.1,-3.3 -15.81,-4.38 -23.04,-1.32s-12.14,10.94 -9.81,17.9c1.06,3.15 3.47,6.25 2.54,9.44c-0.73,2.45 -3.25,4.07 -5.73,5.22s-5.18,2.12 -6.98,4.07s-2.16,5.28 0.08,6.79c0.73,0.49 1.66,0.73 2.37,1.25a3.77,3.77 0 0 1 1.17,4.22a8.89,8.89 0 0 1 -2.86,3.75c-2.54,2.2 -5.89,4.7 -5.1,7.81a5.48,5.48 0 0 0 3.69,3.46a18.37,18.37 0 0 0 5.43,0.72l74.97,2.36a28.42,28.42 0 0 0 7.4,-0.41a8.76,8.76 0 0 0 5.81,-3.91c1.44,-2.66 0.49,-5.93 -1.28,-8.41s-4.28,-4.44 -6.36,-6.72s-3.76,-5.12 -3.4,-8.07c0.29,-2.35 1.85,-4.39 2.96,-6.53s1.77,-4.82 0.32,-6.79c-2.03,-2.78 -6.92,-2.53 -9.24,-5.11c-1.75,-1.96 -1.41,-4.77 -1.58,-7.29c-0.42,-6.05 -4.62,-11.77 -10.58,-14.43a20.83,20.83 0 0 0 -18.96,1.29l-1.82,0.71z" fill="#2f2e41" id="svg_14" transform="translate(-252.01917 -137.57725)"/>
  <polygon fill="#a0616a" id="svg_15" points="449.634 611.598 437.893 608.07 445.912 561.103 463.241 566.31 449.634 611.598"/>
  <path d="m701.23,761.46l-37.86,-11.38l0.14,-0.48a15.39,15.39 0 0 1 19.17,-10.31l0,0l23.12,6.95l-4.57,15.22z" fill="#2f2e41" id="svg_16" transform="translate(-252.01917 -137.57725)"/>
  <polygon fill="#a0616a" id="svg_17" points="560.431 611.995 548.171 611.994 542.339 564.706 560.433 564.707 560.431 611.995"/>
  <path d="m815.58,761.46l-39.53,-0.01l0,-0.5a15.39,15.39 0 0 1 15.38,-15.38l0,0l24.15,0l0,15.89z" fill="#2f2e41" id="svg_18" transform="translate(-252.01917 -137.57725)"/>
  <path d="m795.43,713.81a4.5,4.5 0 0 1 -4.44,-3.79l-18.2,-113.56a3.5,3.5 0 0 0 -6.69,-0.79l-47.16,113.54a4.52,4.52 0 0 1 -5.58,2.54l-17.04,-5.67a4.49,4.49 0 0 1 -2.96,-5.27l38.65,-171.02a4.53,4.53 0 0 1 3.37,-3.39l51.83,-12.03a4.56,4.56 0 0 1 3.71,0.77c34.13,24.8 31.25,105.82 24.89,193.8a4.5,4.5 0 0 1 -4.3,4.17l-15.88,0.69c-0.07,0 -0.13,0.01 -0.2,0.01z" fill="#2f2e41" id="svg_19" transform="translate(-252.01917 -137.57725)"/>
  <circle cx="499.78" cy="271.97" fill="#a0616a" id="svg_20" r="24.56"/>
  <path d="m500.84,399.26a39.9,39.9 0 0 1 -17.02,-3.93l-0.19,-0.09l-0.07,-0.18l-22.03,-57.08l-0.42,-9.92a23.77,23.77 0 0 1 25.09,-24.74l23.39,1.32a23.79,23.79 0 0 1 22.44,23.61c0.61,1.17 4.92,10.29 -3.54,18.87c-0.31,1.95 -3.27,22.24 7.89,33.4l0.32,0.32l-0.28,0.34c-0.18,0.23 -14.51,18.08 -35.58,18.08z" fill="#fac000" id="svg_21" transform="matrix(1 0 0 1 0 0)"/>
  <path d="m785.7,541.15a10.06,10.06 0 0 0 5.28,-14.49l23.36,-27.04l-18.42,-2.4l-19.36,26.05a10.11,10.11 0 0 0 9.14,17.88z" fill="#a0616a" id="svg_22" transform="translate(-252.01917 -137.57725)"/>
  <path d="m742.89,535.45a10.06,10.06 0 0 1 -10.44,-11.35l-31.95,-15.99l16.07,-9.29l27.89,16.61a10.11,10.11 0 0 1 -1.57,20.02z" fill="#a0616a" id="svg_23" transform="translate(-252.01917 -137.57725)"/>
  <path d="m548.29,382.7a4.49,4.49 0 0 1 -2.47,-0.74l-11.56,-7.58a4.49,4.49 0 0 1 -1.39,-6.07l8.36,-14.05a6.27,6.27 0 0 0 -2.82,-8.93l-24.03,-10.77a14.32,14.32 0 0 1 -8.11,-15.92l0,0a14.24,14.24 0 0 1 20.43,-9.75l36.45,18.68a19.18,19.18 0 0 1 6.81,28.29l-18.02,24.97a4.49,4.49 0 0 1 -3.65,1.87z" fill="#fac600" id="svg_24" transform="matrix(1 0 0 1 0 0)"/>
  <path d="m473.27,387.13a4.49,4.49 0 0 1 -1.92,-0.43l-27.86,-13.11a19.18,19.18 0 0 1 -7.75,-28.04l22.83,-34.01a14.24,14.24 0 0 1 22.6,-1.37a14.32,14.32 0 0 1 0.62,17.86l-15.8,21.06a6.27,6.27 0 0 0 1.86,9.19l14.12,8.23a4.49,4.49 0 0 1 1.72,5.99l-6.44,12.22a4.49,4.49 0 0 1 -3.98,2.41z" fill="#fac600" id="svg_25" transform="matrix(1 0 0 1 0 0)"/>
  <path d="m726.67,406.05c7.76,-0.62 14.2,-8.37 13.39,-16.11a13.01,13.01 0 0 0 11.14,13.25c3.56,0.39 7.46,-0.68 10.56,1.11c3.43,1.99 4.53,6.82 8.1,8.53c3.45,1.66 7.84,-0.6 9.54,-4.03s1.29,-7.55 0.16,-11.21a31.65,31.65 0 0 0 -52.69,-12.98c-3.26,3.29 -5.85,7.47 -6.27,12.07s1.72,9.61 5.85,11.68l0.22,-2.31z" fill="#2f2e41" id="svg_26" transform="translate(-252.01917 -137.57725)"/>
  <path d="m946.98,762.3l-381,0a1,1 0 0 1 0,-2l381,0a1,1 0 0 1 0,2z" fill="#3f3d56" id="svg_27" transform="translate(-252.01917 -137.57725)"/>
 </g>
</svg>