<?xml version="1.0"?>
<svg width="876.97244" height="744" xmlns="http://www.w3.org/2000/svg" xmlns:svg="http://www.w3.org/2000/svg" data-name="Layer 1">
 <g class="layer">
  <title>Layer 1</title>
  <path d="m515,191l-26,0a5.01,5.01 0 0 1 -5,-5l0,-26a5.01,5.01 0 0 1 5,-5l26,0a5.01,5.01 0 0 1 5,5l0,26a5.01,5.01 0 0 1 -5,5zm-26,-34a3,3 0 0 0 -3,3l0,26a3,3 0 0 0 3,3l26,0a3,3 0 0 0 3,-3l0,-26a3,3 0 0 0 -3,-3l-26,0z" fill="#bdbcbc" id="svg_1"/>
  <path d="m212,36l-26,0a5.01,5.01 0 0 1 -5,-5l0,-26a5.01,5.01 0 0 1 5,-5l26,0a5.01,5.01 0 0 1 5,5l0,26a5.01,5.01 0 0 1 -5,5zm-26,-34a3,3 0 0 0 -3,3l0,26a3,3 0 0 0 3,3l26,0a3,3 0 0 0 3,-3l0,-26a3,3 0 0 0 -3,-3l-26,0z" fill="#bdbcbc" id="svg_2"/>
  <path d="m499,178l-26,0a5.01,5.01 0 0 1 -5,-5l0,-26a5.01,5.01 0 0 1 5,-5l26,0a5.01,5.01 0 0 1 5,5l0,26a5.01,5.01 0 0 1 -5,5zm-26,-34a3,3 0 0 0 -3,3l0,26a3,3 0 0 0 3,3l26,0a3,3 0 0 0 3,-3l0,-26a3,3 0 0 0 -3,-3l-26,0z" fill="#bdbcbc" id="svg_3" transform="matrix(1 0 0 1 0 0)"/>
  <path d="m47,395l-26,0a5.01,5.01 0 0 1 -5,-5l0,-26a5.01,5.01 0 0 1 5,-5l26,0a5.01,5.01 0 0 1 5,5l0,26a5.01,5.01 0 0 1 -5,5zm-26,-34a3,3 0 0 0 -3,3l0,26a3,3 0 0 0 3,3l26,0a3,3 0 0 0 3,-3l0,-26a3,3 0 0 0 -3,-3l-26,0z" fill="#bdbcbc" id="svg_4"/>
  <path d="m31,382l-26,0a5.01,5.01 0 0 1 -5,-5l0,-26a5.01,5.01 0 0 1 5,-5l26,0a5.01,5.01 0 0 1 5,5l0,26a5.01,5.01 0 0 1 -5,5zm-26,-34a3,3 0 0 0 -3,3l0,26a3,3 0 0 0 3,3l26,0a3,3 0 0 0 3,-3l0,-26a3,3 0 0 0 -3,-3l-26,0z" fill="#bdbcbc" id="svg_5"/>
  <path d="m253.94,164.04l240.62,0a51.15,51.15 0 0 1 49.9,39.9l121.57,539.27a41.34,41.34 0 0 1 -38.29,50.38l-247.35,12.19a54.61,54.61 0 0 1 -56.43,-44.83l-68.97,-381.27l-5.13,1.47l-13.2,-72.27l5.28,-1.32l-19.25,-106.42a31.49,31.49 0 0 1 31.25,-37.1z" fill="#3f3d56" id="svg_6" transform="translate(-161.51378 -78)"/>
  <path d="m301.37,97.66l28.09,0a35.35,35.35 0 0 1 34.54,27.82l116.69,534.86a21.9,21.9 0 0 1 -19.96,26.53l-246.56,16.16a28.37,28.37 0 0 1 -29.77,-23.28l-99.58,-552.84a24.85,24.85 0 0 1 24.45,-29.25l26.65,0a11.73,11.73 0 0 1 11.32,8.68l0,0a10.35,10.35 0 0 0 10,7.66l126.49,0a17.7,17.7 0 0 0 17.64,-16.34z" fill="#fff" id="svg_7" transform="matrix(1 0 0 1 0 0)"/>
  <polygon fill="#fac600" id="svg_8" points="104 188.606 371.476 188.606 399.971 317 129 322 104 188.606" transform="matrix(1 0 0 1 0 0)"/>
  <polygon fill="#fac600" id="svg_9" points="358 431.754 420.971 431.754 422.971 443.809 360 443.809 358 431.754" transform="matrix(1 0 0 1 0 0)"/>
  <rect fill="#2f2e41" height="1.26" id="svg_10" transform="translate(-170.9793 -68.64185) rotate(-1.21314)" width="267.12" x="303.67" y="451.08"/>
  <rect fill="#2f2e41" height="1.26" id="svg_11" transform="translate(-172.68833 -67.64407) rotate(-1.32299)" width="272.16" x="306.8" y="488.47"/>
  <polygon fill="#fac600" id="svg_12" points="384 560.754 446.971 560.754 448.971 572.809 386 572.809 384 560.754"/>
  <rect fill="#2f2e41" height="1.26" id="svg_13" transform="translate(-173.70462 -68.06247) rotate(-1.21314)" width="267.12" x="329.67" y="580.08"/>
  <rect fill="#2f2e41" height="1.26" id="svg_14" transform="translate(-175.65981 -67.00938) rotate(-1.32299)" width="272.16" x="332.8" y="617.47"/>
  <polygon fill="#a0616a" id="svg_15" points="615.56 731.207 603.645 731.206 597.977 685.249 615.562 685.25 615.56 731.207"/>
  <path d="m780.11,820.76l-38.42,0l0,-0.49a14.95,14.95 0 0 1 14.96,-14.95l0,0l23.46,0l0,15.44z" fill="#2f2e41" id="svg_16" transform="translate(-161.51378 -78)"/>
  <polygon fill="#a0616a" id="svg_17" points="763.576 723.405 751.979 726.136 735.926 682.702 753.043 678.671 763.576 723.405"/>
  <path d="m930.7,811.95l-37.4,8.81l-0.11,-0.48a14.95,14.95 0 0 1 11.13,-17.98l0,0l22.84,-5.38l3.54,15.03z" fill="#2f2e41" id="svg_18" transform="translate(-161.51378 -78)"/>
  <path d="m774.64,615.37c0.02,-2.4 0.73,-58.92 16.22,-80.29l0.23,-0.32l54,7.45l-1.21,11.87c2.37,2.31 21.05,21.83 26.45,68.05l57.3,153.91l-26.64,2.43l-78.86,-168.02l-41.74,182.63l-26.41,0l20.66,-177.71z" fill="#2f2e41" id="svg_19" transform="translate(-161.51378 -78)"/>
  <path d="m623.03,459.16l5.28,-27.7c-1.04,-1.33 -5.61,-7.72 -4.6,-15.21c0.67,-4.88 3.59,-9.16 8.67,-12.73l13.68,-31.92l0.19,-0.11c0.92,-0.54 22.7,-13.14 34.57,-1.25c0.3,0.23 29.54,23.43 17.8,54.74l-14.5,43.49l-61.09,-9.31z" fill="#fac600" id="svg_20" transform="matrix(1 0 0 1 0 0)"/>
  <path d="m766.18,574.65a9.8,9.8 0 0 0 8.27,-12.54l28.25,-20.35l-16.91,-6.43l-24.23,20.31a9.85,9.85 0 0 0 4.62,19.01z" fill="#a0616a" id="svg_21" transform="translate(-161.51378 -78)"/>
  <path d="m609.86,463.73l43.13,-33.99l-12.82,-43.8a15.74,15.74 0 0 1 1.59,-12.46a14.56,14.56 0 0 1 9.54,-6.89c7.39,-1.56 14.09,2.57 19.92,12.29l0.04,0.09c0.97,2.35 23.44,57.9 6.28,69.77c-16.78,11.62 -55.7,28.54 -56.09,28.71l-0.46,0.19l-11.13,-13.91z" fill="#fac600" id="svg_22" transform="matrix(1 0 0 1 0 0)"/>
  <circle cx="667.18" cy="332.56" fill="#a0616a" id="svg_23" r="26.13"/>
  <circle cx="708.14" cy="300.11" fill="#2f2e41" id="svg_24" r="23.11"/>
  <path d="m889.59,397.25a23.12,23.12 0 0 1 -35.69,-12.13a23.12,23.12 0 1 0 45.08,-9.48a23.11,23.11 0 0 1 -9.39,21.61z" fill="#2f2e41" id="svg_25" transform="translate(-161.51378 -78)"/>
  <path d="m798.37,397.28c4.04,-7.22 5.58,-10.24 10.78,-14.63c4.6,-3.89 10.26,-5.03 14.83,-1.35a27.34,27.34 0 1 1 -16.5,25.09a27.56,27.56 0 0 1 0.19,-3.09c-3.97,-0.56 -5.33,-5.46 -9.3,-6.02z" fill="#2f2e41" id="svg_26" transform="translate(-161.51378 -78)"/>
  <path d="m1037.49,822l-381,0a1,1 0 0 1 0,-2l381,0a1,1 0 0 1 0,2z" fill="#3f3d56" id="svg_27" transform="translate(-161.51378 -78)"/>
 </g>
</svg>