<?xml version="1.0"?>
<svg width="904.51179" height="587.86116" xmlns="http://www.w3.org/2000/svg" xmlns:svg="http://www.w3.org/2000/svg" data-name="Layer 1">
 <g class="layer">
  <title>Layer 1</title>
  <path d="m1030.78,515.1l-31.8,0a4.5,4.5 0 0 1 -3.54,-1.71a4.41,4.41 0 0 1 -0.86,-3.74a86.54,86.54 0 0 0 -0.42,-40.01a4.47,4.47 0 0 1 2.42,-5.13c13.29,-6.21 25.49,-6.05 36.26,0.48a4.53,4.53 0 0 1 2.14,3.16a141.55,141.55 0 0 1 0.26,43.08a4.49,4.49 0 0 1 -4.46,3.87z" fill="#fac600" id="svg_1" transform="translate(-147.74411 -156.06942)"/>
  <path d="m1030.3,494.26l-24.32,0a2.28,2.28 0 0 1 0,-4.56l24.32,0a2.28,2.28 0 0 1 0,4.56z" fill="#fff" id="svg_2" transform="translate(-147.74411 -156.06942)"/>
  <path d="m1030.3,486.26l-24.32,0a2.28,2.28 0 0 1 0,-4.56l24.32,0a2.28,2.28 0 0 1 0,4.56z" fill="#fff" id="svg_3" transform="translate(-147.74411 -156.06942)"/>
  <circle cx="246.15" cy="186.84" fill="#f2f2f2" id="svg_4" r="169"/>
  <circle cx="442.15" cy="318.84" fill="#bdbcbc" id="svg_5" r="32" transform="matrix(1 0 0 1 0 0)"/>
  <circle cx="603.15" cy="409.84" fill="#bdbcbc" id="svg_6" r="13"/>
  <path d="m703.53,460.97c-5.49,-41.89 -31.73,-83.03 -71.81,-96.42a194.66,194.66 0 0 1 0.85,133.64c-6.04,16.66 -14.49,34.56 -8.6,51.27c3.66,10.4 12.51,18.32 22.37,23.24c9.87,4.93 20.8,7.23 31.59,9.49l2.13,1.74c16.86,-38.74 28.95,-81.07 23.47,-122.96z" fill="#00bf5f" id="svg_7" transform="matrix(1 0 0 1 0 0)"/>
  <path d="m779.07,521.41a166.38,166.38 0 0 1 41.96,93.37c0.78,7.46 0.92,15.08 -0.67,22.44a41.09,41.09 0 0 1 -10.1,19.13c-4.57,5.09 -9.84,9.77 -13.1,15.88c-3.43,6.45 -3.52,13.74 -1.09,20.55c2.96,8.33 8.74,15.09 14.62,21.52c6.53,7.12 13.43,14.43 16.24,23.91c0.35,1.15 2.11,0.56 1.77,-0.59c-4.9,-16.51 -21.02,-25.8 -28.77,-40.65c-3.62,-6.93 -5.17,-14.99 -1.87,-22.35c2.89,-6.43 8.32,-11.26 13,-16.37c4.91,-5.37 8.66,-11.25 10.57,-18.34c1.95,-7.24 2.11,-14.89 1.53,-22.33a161.42,161.42 0 0 0 -12.1,-48.97a169.33,169.33 0 0 0 -30.76,-48.6c-0.81,-0.89 -2.02,0.52 -1.23,1.4z" fill="#fff" id="svg_8" transform="translate(-147.74411 -156.06942)"/>
  <path d="m820.46,603.52a24.96,24.96 0 0 0 18.83,-26.27c-0.1,-1.19 -1.96,-1.09 -1.86,0.1a23.11,23.11 0 0 1 -17.56,24.41c-1.17,0.28 -0.57,2.04 0.59,1.76z" fill="#fff" id="svg_9" transform="translate(-147.74411 -156.06942)"/>
  <path d="m812.92,654.07a48.11,48.11 0 0 1 -21.66,-27.57c-0.34,-1.15 -2.11,-0.55 -1.76,0.6a50.04,50.04 0 0 0 22.6,28.64c1.03,0.61 1.85,-1.06 0.82,-1.67z" fill="#fff" id="svg_10" transform="translate(-147.74411 -156.06942)"/>
  <path d="m801.93,552.55a14.13,14.13 0 0 1 -13.39,-0.6c-1.03,-0.62 -1.85,1.06 -0.83,1.67a15.83,15.83 0 0 0 14.82,0.69a0.96,0.96 0 0 0 0.58,-1.18a0.94,0.94 0 0 0 -1.18,-0.58z" fill="#fff" id="svg_11" transform="translate(-147.74411 -156.06942)"/>
  <path d="m510.33,440.21c0.63,0.41 1.26,0.81 1.89,1.23a186.08,186.08 0 0 1 23.91,18.42c0.59,0.52 1.17,1.05 1.74,1.58a196.17,196.17 0 0 1 42.98,58.05a190.51,190.51 0 0 1 10.61,26.93c3.93,12.75 7.18,26.89 14.87,37.29a32.68,32.68 0 0 0 2.56,3.13l68.88,-0.44c0.16,-0.08 0.32,-0.15 0.47,-0.23l2.75,0.11c-0.11,-0.48 -0.24,-0.99 -0.35,-1.47c-0.07,-0.28 -0.15,-0.57 -0.21,-0.85c-0.05,-0.19 -0.1,-0.38 -0.13,-0.55c-0.02,-0.06 -0.03,-0.12 -0.05,-0.17c-0.03,-0.17 -0.08,-0.33 -0.11,-0.49q-1.07,-4.21 -2.19,-8.42c0,-0.02 0,-0.02 -0.02,-0.03c-5.78,-21.39 -13.39,-42.48 -23.97,-61.74c-0.32,-0.58 -0.63,-1.17 -0.98,-1.75a181.79,181.79 0 0 0 -16.49,-24.67a160.71,160.71 0 0 0 -10.78,-12.17a133.64,133.64 0 0 0 -33.6,-24.84c-24.79,-12.88 -53.42,-17.7 -79.78,-9.56c-0.67,0.21 -1.33,0.42 -2,0.64z" fill="#00bf5f" id="svg_12" transform="matrix(1 0 0 1 0 0)"/>
  <path d="m658.23,597.15a166.38,166.38 0 0 1 89.72,49.29c5.1,5.49 9.8,11.49 12.97,18.32a41.09,41.09 0 0 1 3.45,21.36c-0.58,6.81 -1.97,13.72 -0.89,20.56c1.13,7.22 5.46,13.09 11.49,17.07c7.38,4.87 16.07,6.79 24.63,8.37c9.51,1.77 19.41,3.44 27.37,9.32c0.97,0.72 2.01,-0.82 1.05,-1.53c-13.85,-10.23 -32.31,-7.95 -47.44,-15.14c-7.06,-3.35 -13.15,-8.85 -14.95,-16.72c-1.56,-6.87 -0.14,-14 0.52,-20.9c0.68,-7.24 0.14,-14.2 -2.6,-21c-2.8,-6.96 -7.28,-13.16 -12.22,-18.75a161.42,161.42 0 0 0 -39.15,-31.82a169.33,169.33 0 0 0 -53.82,-20.28c-1.18,-0.23 -1.3,1.63 -0.13,1.85z" fill="#fff" id="svg_13" transform="translate(-147.74411 -156.06942)"/>
  <path d="m740.71,637.79a24.96,24.96 0 0 0 -0.78,-32.31c-0.8,-0.89 -2.23,0.31 -1.42,1.2a23.11,23.11 0 0 1 0.66,30.06c-0.76,0.93 0.78,1.98 1.54,1.05z" fill="#fff" id="svg_14" transform="translate(-147.74411 -156.06942)"/>
  <path d="m765.13,682.7a48.11,48.11 0 0 1 -33.9,-8.98c-0.97,-0.7 -2.02,0.83 -1.05,1.54a50.04,50.04 0 0 0 35.29,9.27c1.19,-0.14 0.84,-1.97 -0.34,-1.83z" fill="#fff" id="svg_15" transform="translate(-147.74411 -156.06942)"/>
  <path d="m695.22,608.25a14.13,14.13 0 0 1 -11.05,7.59c-1.19,0.13 -0.84,1.95 0.35,1.83a15.83,15.83 0 0 0 12.24,-8.37a0.96,0.96 0 0 0 -0.24,-1.29a0.94,0.94 0 0 0 -1.3,0.24z" fill="#fff" id="svg_16" transform="translate(-147.74411 -156.06942)"/>
  <path d="m988.43,453.32l-9.31,-90.16l-2.46,-37.11l26.07,-4.72s3.91,25.51 7.32,40.48c3.37,14.78 -4.49,89.53 -4.7,91.5a12.68,12.68 0 1 1 -16.92,0.01z" fill="#ffb8b8" id="svg_17" transform="translate(-147.74411 -156.06942)"/>
  <polygon fill="#ffb6b6" id="svg_18" points="734.148 574.092 720.884 574.092 714.574 522.932 734.15 522.933 734.148 574.092"/>
  <path d="m885.27,743.02l-42.76,0l0,-0.54a16.65,16.65 0 0 1 16.64,-16.65l0,0l7.82,-5.93l14.57,5.93l3.74,0l-0.01,17.19z" fill="#2f2e41" id="svg_19" transform="translate(-147.74411 -156.06942)"/>
  <polygon fill="#ffb6b6" id="svg_20" points="851.045 574.092 837.782 574.092 831.472 522.932 851.048 522.933 851.045 574.092"/>
  <path d="m1002.17,743.02l-42.77,0l0,-0.54a16.65,16.65 0 0 1 16.65,-16.65l0,0l7.81,-5.93l14.58,5.93l3.73,0l0,17.19z" fill="#2f2e41" id="svg_21" transform="translate(-147.74411 -156.06942)"/>
  <path d="m978.62,456.35l11.15,105.98s14.85,106.12 12.06,120.76s0.7,16.73 0.7,16.73l-25.45,-1.81s0.7,-9.06 -3.48,-13.25s-2.09,-16.73 -2.09,-16.73l-49.37,-172.63l-29.98,90.64s-4.88,99.7 -5.58,101.1s-2.79,20.22 -2.79,20.22l-25.8,0s3.49,-11.16 -1.39,-14.64s-9.07,-0.7 -4.88,-6.98s5.58,-13.94 4.18,-17.43s-1.39,-17.43 -1.39,-17.43s2.09,-188.25 13.94,-194.53s110.17,0 110.17,0z" fill="#2f2e41" id="svg_22" transform="translate(-147.74411 -156.06942)"/>
  <circle cx="778.04" cy="58.26" fill="#ffb8b8" id="svg_23" r="27.44"/>
  <path d="m859.39,179.65l-26.99,9.67l-8.22,2.95l-6,-76.63l20.59,10.92a0.43,0.43 0 0 1 0.09,0.09a55.72,55.72 0 0 1 8.87,13.15c11.29,22.96 11.66,39.85 11.66,39.85z" fill="#06426a" id="svg_24" transform="matrix(1 0 0 1 0 0)"/>
  <path d="m821.22,446.85s27.43,-85.22 27.91,-86.25c3.59,-27.28 13.93,-39.31 15.48,-38l26.66,9.24s-7.93,25.11 -13.3,40.04c-5.13,14.25 -40.28,80.07 -41.26,81.79a12.68,12.68 0 1 1 -15.49,-6.82z" fill="#ffb8b8" id="svg_25" transform="translate(-147.74411 -156.06942)"/>
  <path d="m756.34,120.58s-23.09,-11.32 -32.04,10.91c-5.86,14.99 -8.64,21.52 -12.56,37.13c0,0 23.54,3.54 31.08,16.83l13.52,-64.87z" fill="#06426a" id="svg_26"/>
  <path d="m840.36,311.83c-53.14,10.98 -123.56,-7.89 -123.56,-7.89l18.79,-81.43l-6.68,-85.22c-0.82,-10.42 5.12,-20.19 14.35,-23.65l12.75,-4.78l10.54,-15.08l30.1,0.98l12.04,15.84l9.49,5.04l20.59,10.92l0.09,0.05l0,0.04l-6.46,62.67l-3.89,37.79s11.83,42.5 9.4,48.14c-2.43,5.63 -0.31,2.91 0.27,5.92c0.59,3 2.4,3.2 2.67,9.12c0.28,5.92 -0.49,21.54 -0.49,21.54z" fill="#06426a" id="svg_27" transform="matrix(1 0 0 1 0 0)"/>
  <path d="m955.55,204.56c-2.17,-2.14 1.1,-7.81 0.48,-10.79c-0.71,-3.42 -4.48,-3.52 -5.38,-6.89c-0.96,-3.63 -4.83,-5.61 -8.41,-6.76a54.39,54.39 0 0 0 -28.34,-1.3a108.2,108.2 0 0 0 -12.27,3.78c-2.76,0.97 -0.1,-1.68 -2.86,-0.7a4.34,4.34 0 0 0 -2.6,1.72c-0.5,0.94 0.17,2.44 1.22,2.25q-5.07,2.24 -10.14,4.47q2.85,2.98 5.69,5.96c-2.69,-0.77 -5.57,2.45 -4.5,5.04a5.69,5.69 0 0 0 4.35,3.01c3.05,0.6 0.74,3.49 3.84,3.44s24.72,-6.42 26.22,-3.71c1.08,1.93 0.96,4.49 2.49,6.08c1.96,2.03 5.39,1.29 7.88,-0.04c2.5,-1.32 5.03,-3.14 7.83,-2.82c2.94,0.33 5.15,5.75 5.87,8.61c0.73,2.86 0.27,5.86 -0.19,8.78c-0.6,3.82 -6.64,7.65 -7.25,11.48c6.71,1.85 13.9,-4.05 16.55,-14.31c-0.26,-6.48 4.14,-12.74 -0.48,-17.3z" fill="#2f2e41" id="svg_28" transform="translate(-147.74411 -156.06942)"/>
  <path d="m528.99,560.91c-80.77,0.01 -151.05,-60.25 -161.43,-142.43l1.98,-0.26c10.25,81.18 79.68,140.69 159.45,140.69a161.36,161.36 0 0 0 20.28,-1.28c87.98,-11.11 150.52,-91.74 139.41,-179.72l1.98,-0.25c11.25,89.08 -52.06,170.71 -141.14,181.96a163.74,163.74 0 0 1 -20.53,1.29z" fill="#3f3d56" id="svg_29" transform="translate(-147.74411 -156.06942)"/>
  <path d="m533.33,594.36l-31.8,0a4.5,4.5 0 0 1 -3.54,-1.7a4.41,4.41 0 0 1 -0.86,-3.75a86.52,86.52 0 0 0 -0.52,-40.4a4.48,4.48 0 0 1 1.95,-4.87c11,-6.82 22.98,-6.6 36.63,0.65a4.55,4.55 0 0 1 2.36,3.28a141.56,141.56 0 0 1 0.24,42.92a4.49,4.49 0 0 1 -4.46,3.87z" fill="#fac600" id="svg_30" transform="translate(-147.74411 -156.06942)"/>
  <path d="m388.33,424.36l-31.8,0a4.5,4.5 0 0 1 -3.54,-1.7a4.41,4.41 0 0 1 -0.86,-3.75a86.49,86.49 0 0 0 -0.56,-40.53a4.51,4.51 0 0 1 1.75,-4.74c16.36,-11.76 29.23,-11.42 38.28,1.01a4.52,4.52 0 0 1 0.79,1.91a141.54,141.54 0 0 1 0.4,43.93a4.49,4.49 0 0 1 -4.46,3.87z" fill="#ccc" id="svg_31" transform="translate(-147.74411 -156.06942)"/>
  <path d="m518.47,564.51l-10.94,0a2.28,2.28 0 0 1 0,-4.56l10.94,0a2.28,2.28 0 0 1 0,4.56z" fill="#fff" id="svg_32" transform="translate(-147.74411 -156.06942)"/>
  <path d="m531.85,573.53l-24.32,0a2.28,2.28 0 0 1 0,-4.57l24.32,0a2.28,2.28 0 0 1 0,4.57z" fill="#fff" id="svg_33" transform="translate(-147.74411 -156.06942)"/>
  <path d="m378.47,392.51l-10.94,0a2.28,2.28 0 0 1 0,-4.56l10.94,0a2.28,2.28 0 0 1 0,4.56z" fill="#fff" id="svg_34" transform="translate(-147.74411 -156.06942)"/>
  <path d="m378.47,400.51l-10.94,0a2.28,2.28 0 0 1 0,-4.56l10.94,0a2.28,2.28 0 0 1 0,4.56z" fill="#fff" id="svg_35" transform="translate(-147.74411 -156.06942)"/>
  <path d="m378.47,408.51l-10.94,0a2.28,2.28 0 0 1 0,-4.56l10.94,0a2.28,2.28 0 0 1 0,4.56z" fill="#fff" id="svg_36" transform="translate(-147.74411 -156.06942)"/>
  <path d="m668.63,305.86l-101.66,0a10.29,10.29 0 0 1 -10.28,-10.27l0,-62.62a10.29,10.29 0 0 1 10.28,-10.28l101.66,0a10.29,10.29 0 0 1 10.28,10.28l0,62.62a10.29,10.29 0 0 1 -10.28,10.27z" fill="#bdbcbc" id="svg_37" transform="matrix(1 0 0 1 0 0)"/>
  <path d="m775.98,453.87l-54.13,0a9.64,9.64 0 0 1 -9.62,-9.63l0,-47.79a9.64,9.64 0 0 1 9.62,-9.62l87.37,0a9.64,9.64 0 0 1 9.63,9.62l0,14.55a42.92,42.92 0 0 1 -42.87,42.87z" fill="#fff" id="svg_38" transform="translate(-147.74411 -156.06942)"/>
  <path d="m800.51,413l-69.94,0a2.28,2.28 0 1 1 0,-4.56l69.94,0a2.28,2.28 0 1 1 0,4.56z" fill="#fac600" id="svg_39" transform="translate(-147.74411 -156.06942)"/>
  <path d="m741.51,422.01l-10.94,0a2.28,2.28 0 0 1 0,-4.56l10.94,0a2.28,2.28 0 0 1 0,4.56z" fill="#fac600" id="svg_40" transform="translate(-147.74411 -156.06942)"/>
  <path d="m760.89,431.03l-30.32,0a2.28,2.28 0 0 1 0,-4.57l30.32,0a2.28,2.28 0 1 1 0,4.57z" fill="#fac600" id="svg_41" transform="translate(-147.74411 -156.06942)"/>
  <circle cx="553.14" cy="221.45" fill="#3f3d56" id="svg_42" r="21.51"/>
  <path d="m457.43,213.92a56.09,56.09 0 1 1 110.06,21.68l-1.97,-0.38a54.09,54.09 0 1 0 -106.13,-20.91l-1.96,-0.39z" fill="#3f3d56" id="svg_43" transform="translate(-147.74411 -156.06942)"/>
  <path d="m478.73,249.3l-31.78,1.32a4.5,4.5 0 0 1 -3.6,-1.56a4.41,4.41 0 0 1 -1.02,-3.7a86.54,86.54 0 0 0 -2.07,-39.95a4.47,4.47 0 0 1 2.21,-5.23c13.01,-6.76 25.21,-7.11 36.24,-1.02a4.53,4.53 0 0 1 2.27,3.06a141.55,141.55 0 0 1 2.04,43.03a4.49,4.49 0 0 1 -4.29,4.05z" fill="#fac600" id="svg_44" transform="translate(-147.74411 -156.06942)"/>
  <path d="m477.38,228.51l-24.29,1a2.28,2.28 0 1 1 -0.19,-4.56l24.29,-1a2.28,2.28 0 0 1 0.19,4.56z" fill="#fff" id="svg_45" transform="translate(-147.74411 -156.06942)"/>
  <path d="m477.05,220.51l-24.29,1.01a2.28,2.28 0 0 1 -0.19,-4.56l24.29,-1.01a2.28,2.28 0 0 1 0.19,4.56z" fill="#fff" id="svg_46" transform="translate(-147.74411 -156.06942)"/>
  <path d="m538.95,83.17l-101.67,0a10.29,10.29 0 0 1 -10.28,-10.28l0,-62.61a10.29,10.29 0 0 1 10.28,-10.28l101.67,0a10.29,10.29 0 0 1 10.27,10.28l0,62.61a10.29,10.29 0 0 1 -10.27,10.28z" fill="#bdbcbc" id="svg_47" transform="matrix(1 0 0 1 0 0)"/>
  <path d="m646.29,231.17l-54.12,0a9.64,9.64 0 0 1 -9.63,-9.62l0,-47.79a9.64,9.64 0 0 1 9.63,-9.63l87.37,0a9.64,9.64 0 0 1 9.62,9.63l0,14.54a42.92,42.92 0 0 1 -42.87,42.87z" fill="#fff" id="svg_48" transform="translate(-147.74411 -156.06942)"/>
  <path d="m670.82,190.3l-69.94,0a2.28,2.28 0 1 1 0,-4.56l69.94,0a2.28,2.28 0 1 1 0,4.56z" fill="#fac600" id="svg_49" transform="translate(-147.74411 -156.06942)"/>
  <path d="m611.82,199.32l-10.94,0a2.28,2.28 0 0 1 0,-4.57l10.94,0a2.28,2.28 0 0 1 0,4.57z" fill="#fac600" id="svg_50" transform="translate(-147.74411 -156.06942)"/>
  <path d="m631.2,208.33l-30.32,0a2.28,2.28 0 0 1 0,-4.56l30.32,0a2.28,2.28 0 0 1 0,4.56z" fill="#fac600" id="svg_51" transform="translate(-147.74411 -156.06942)"/>
  <circle cx="568.56" cy="238.72" fill="#3f3d56" id="svg_52" r="21.51" transform="translate(-82.08946 439.49802) rotate(-58.13426)"/>
  <path d="m1051.34,743.93l-295.47,0a0.92,0.92 0 0 1 0,-1.84l295.47,0a0.92,0.92 0 1 1 0,1.84z" fill="#ccc" id="svg_53" transform="translate(-147.74411 -156.06942)"/>
  <path d="m282.07,406.5a94.03,94.03 0 0 1 175.9,-66.54l-1.87,0.71a92.03,92.03 0 1 0 -172.16,65.12l-1.87,0.71z" fill="#3f3d56" id="svg_54" transform="translate(-147.74411 -156.06942)"/>
  <path d="m364.33,313.36l-31.8,0a4.5,4.5 0 0 1 -3.54,-1.7a4.41,4.41 0 0 1 -0.86,-3.75a86.51,86.51 0 0 0 -0.5,-40.31a4.46,4.46 0 0 1 2.06,-4.93c11.52,-6.71 23.82,-6.5 36.56,0.61a4.51,4.51 0 0 1 2.3,3.23a141.56,141.56 0 0 1 0.24,42.98a4.49,4.49 0 0 1 -4.46,3.87z" fill="#fac600" id="svg_55" transform="translate(-147.74411 -156.06942)"/>
  <path d="m349.47,282.51l-10.94,0a2.28,2.28 0 0 1 0,-4.56l10.94,0a2.28,2.28 0 0 1 0,4.56z" fill="#fff" id="svg_56" transform="translate(-147.74411 -156.06942)"/>
  <path d="m362.85,291.53l-24.32,0a2.28,2.28 0 0 1 0,-4.57l24.32,0a2.28,2.28 0 0 1 0,4.57z" fill="#fff" id="svg_57" transform="translate(-147.74411 -156.06942)"/>
  <path d="m111.95,249.17l-101.67,0a10.29,10.29 0 0 1 -10.28,-10.28l0,-62.61a10.29,10.29 0 0 1 10.28,-10.28l101.67,0a10.29,10.29 0 0 1 10.27,10.28l0,62.61a10.29,10.29 0 0 1 -10.27,10.28z" fill="#bdbcbc" id="svg_58" transform="matrix(1 0 0 1 0 0)"/>
  <path d="m219.29,397.17l-54.12,0a9.64,9.64 0 0 1 -9.63,-9.62l0,-47.79a9.64,9.64 0 0 1 9.63,-9.63l87.37,0a9.64,9.64 0 0 1 9.62,9.63l0,14.54a42.92,42.92 0 0 1 -42.87,42.87z" fill="#fff" id="svg_59" transform="translate(-147.74411 -156.06942)"/>
  <path d="m243.82,356.3l-69.94,0a2.28,2.28 0 1 1 0,-4.56l69.94,0a2.28,2.28 0 1 1 0,4.56z" fill="#fac600" id="svg_60" transform="translate(-147.74411 -156.06942)"/>
  <path d="m184.82,365.32l-10.94,0a2.28,2.28 0 0 1 0,-4.57l10.94,0a2.28,2.28 0 0 1 0,4.57z" fill="#fac600" id="svg_61" transform="translate(-147.74411 -156.06942)"/>
  <path d="m204.2,374.33l-30.32,0a2.28,2.28 0 0 1 0,-4.56l30.32,0a2.28,2.28 0 0 1 0,4.56z" fill="#fac600" id="svg_62" transform="translate(-147.74411 -156.06942)"/>
  <circle cx="281.56" cy="402.72" fill="#3f3d56" id="svg_63" r="21.51" transform="translate(-356.85653 273.17189) rotate(-58.13426)"/>
  <path d="m473.33,373.36l-31.8,0a4.5,4.5 0 0 1 -3.54,-1.7a4.41,4.41 0 0 1 -0.86,-3.75a86.52,86.52 0 0 0 -0.48,-40.24a4.49,4.49 0 0 1 2.12,-4.97c15.45,-8.85 27.69,-8.6 37.4,0.74a4.44,4.44 0 0 1 1.28,2.48a141.56,141.56 0 0 1 0.34,43.57a4.49,4.49 0 0 1 -4.46,3.87z" fill="#ff6584" id="svg_64" transform="translate(-147.74411 -156.06942)"/>
  <path d="m460.47,343.51l-10.94,0a2.28,2.28 0 0 1 0,-4.56l10.94,0a2.28,2.28 0 0 1 0,4.56z" fill="#fff" id="svg_65" transform="translate(-147.74411 -156.06942)"/>
  <path d="m473.85,352.53l-24.32,0a2.28,2.28 0 0 1 0,-4.57l24.32,0a2.28,2.28 0 0 1 0,4.57z" fill="#fff" id="svg_66" transform="translate(-147.74411 -156.06942)"/>
 </g>
</svg>