<?xml version="1.0"?>
<svg width="951.23547" height="632.16225" xmlns="http://www.w3.org/2000/svg" xmlns:svg="http://www.w3.org/2000/svg">
 <g class="layer">
  <title>Layer 1</title>
  <path d="m465.59,496.88c32.6,-57.34 94.78,-101.37 160.61,-97.13a303.92,303.92 0 0 0 -79.93,192.74c-1.08,27.65 0.59,58.51 -17.76,79.2c-11.42,12.88 -28.88,19.12 -46.04,20.43c-17.17,1.31 -34.33,-1.79 -51.26,-4.88l-4.11,1.26c-1.56,-65.94 5.89,-134.27 38.49,-191.62z" fill="rgb(100, 147, 80)" id="svg_1" transform="matrix(1, 0, 0, 1, -124.38226318359375, -133.06927490234375)"/>
  <path d="m626.3,401.13c-48.68,23.43 -90.19,62.57 -115.67,110.3c-5.51,10.32 -10.2,21.27 -12.24,32.84c-2.05,11.58 -0.62,22.6 3.34,33.6c3.61,10.06 8.48,19.92 9.58,30.68c1.17,11.34 -3,21.95 -10.51,30.36c-9.19,10.3 -21.53,16.68 -33.82,22.5c-13.64,6.46 -27.91,12.96 -37.57,25.02c-1.17,1.46 -3.37,-0.44 -2.2,-1.9c16.81,-20.99 45.58,-24.93 65.54,-41.83c9.31,-7.89 16.3,-18.63 15.85,-31.22c-0.38,-11 -5.39,-21.18 -9.14,-31.33c-3.93,-10.66 -5.9,-21.37 -4.48,-32.73c1.44,-11.63 5.71,-22.78 10.93,-33.19c11.78,-23.49 27.89,-45.06 46.35,-63.7a264.38,264.38 0 0 1 73.1,-52.15c1.68,-0.81 2.61,1.95 0.94,2.75z" fill="#fff" id="svg_2" transform="matrix(1, 0, 0, 1, -124.38226318359375, -133.06927490234375)"/>
  <path d="m518.1,495.48a38.97,38.97 0 0 1 -11.76,-49.08c0.85,-1.66 3.48,-0.42 2.62,1.25a36.09,36.09 0 0 0 11.04,45.63c1.51,1.09 -0.4,3.29 -1.9,2.2z" fill="#fff" id="svg_3" transform="matrix(1, 0, 0, 1, -124.38226318359375, -133.06927490234375)"/>
  <path d="m499.22,573.02a75.12,75.12 0 0 0 47.56,-27.11c1.18,-1.46 3.38,0.44 2.2,1.9a78.13,78.13 0 0 1 -49.54,28.1c-1.86,0.27 -2.06,-2.63 -0.22,-2.89z" fill="#fff" id="svg_4" transform="matrix(1, 0, 0, 1, -124.38226318359375, -133.06927490234375)"/>
  <path d="m574.91,432.69a22.06,22.06 0 0 0 19.71,7.02c1.86,-0.28 2.06,2.62 0.22,2.9a24.72,24.72 0 0 1 -21.83,-7.72a1.5,1.5 0 0 1 -0.15,-2.05a1.46,1.46 0 0 1 2.05,-0.15z" fill="#fff" id="svg_5" transform="matrix(1, 0, 0, 1, -124.38226318359375, -133.06927490234375)"/>
  <path d="m757.17,580.65c-1.15,0.22 -2.3,0.43 -3.46,0.66a290.53,290.53 0 0 0 -45.42,12.56c-1.15,0.4 -2.31,0.82 -3.45,1.26a306.28,306.28 0 0 0 -96.33,58.62a297.44,297.44 0 0 0 -31.2,32.69c-13.19,16.13 -26.22,34.66 -43.46,45.17a51.03,51.03 0 0 1 -5.55,3.01l-99.34,-41.21c-0.18,-0.2 -0.37,-0.39 -0.55,-0.59l-4.04,-1.47c0.45,-0.63 0.93,-1.29 1.38,-1.92c0.26,-0.37 0.54,-0.73 0.8,-1.1c0.18,-0.25 0.37,-0.49 0.51,-0.72c0.06,-0.08 0.13,-0.16 0.18,-0.22c0.14,-0.23 0.31,-0.43 0.45,-0.64q4.02,-5.46 8.13,-10.89c0.01,-0.02 0.01,-0.02 0.04,-0.04c20.95,-27.51 44.38,-53.52 71.01,-75.15c0.81,-0.65 1.62,-1.32 2.46,-1.95a283.82,283.82 0 0 1 38.37,-25.96a250.91,250.91 0 0 1 22.75,-11.25a208.65,208.65 0 0 1 63.22,-16.12c43.43,-4.03 87.67,5.87 120.98,33.15c0.85,0.7 1.68,1.39 2.52,2.11z" fill="rgb(100, 147, 80)" id="svg_6" transform="matrix(1, 0, 0, 1, -124.38226318359375, -133.06927490234375)"/>
  <path d="m756.43,581.82c-52.98,-10.6 -109.68,-4.34 -158.76,18.43c-10.61,4.92 -20.95,10.84 -29.55,18.85c-8.61,8.01 -14.1,17.68 -17.57,28.84c-3.16,10.2 -5.22,21.01 -10.81,30.27c-5.9,9.76 -15.61,15.71 -26.68,17.91c-13.53,2.69 -27.23,0.35 -40.54,-2.4c-14.78,-3.05 -30.09,-6.46 -45.06,-2.65c-1.82,0.47 -2.43,-2.38 -0.62,-2.84c26.06,-6.63 51.41,7.54 77.51,6.06c12.19,-0.69 24.23,-5.06 31.46,-15.37c6.32,-9.02 8.45,-20.16 11.57,-30.52c3.27,-10.88 8.15,-20.62 16.12,-28.84c8.15,-8.41 18.28,-14.75 28.71,-19.92c23.55,-11.66 49.39,-19.18 75.36,-22.95a264.38,264.38 0 0 1 89.76,2.37c1.83,0.36 0.91,3.12 -0.9,2.76z" fill="#fff" id="svg_7" transform="matrix(1, 0, 0, 1, -124.38226318359375, -133.06927490234375)"/>
  <path d="m613.23,592.01a38.97,38.97 0 0 1 20.16,-46.27c1.68,-0.82 3.03,1.76 1.35,2.58a36.09,36.09 0 0 0 -18.67,43.07c0.55,1.79 -2.29,2.4 -2.84,0.62z" fill="#fff" id="svg_8" transform="matrix(1, 0, 0, 1, -124.38226318359375, -133.06927490234375)"/>
  <path d="m551.48,642.55a75.12,75.12 0 0 0 54.29,6.99c1.82,-0.45 2.43,2.39 0.62,2.85a78.13,78.13 0 0 1 -56.49,-7.39c-1.64,-0.91 -0.05,-3.35 1.58,-2.45z" fill="#fff" id="svg_9" transform="matrix(1, 0, 0, 1, -124.38226318359375, -133.06927490234375)"/>
  <path d="m696.4,576.08a22.06,22.06 0 0 0 11.51,17.48c1.65,0.88 0.06,3.32 -1.58,2.44a24.72,24.72 0 0 1 -12.78,-19.31a1.5,1.5 0 0 1 1.12,-1.73a1.46,1.46 0 0 1 1.73,1.12z" fill="#fff" id="svg_10" transform="matrix(1, 0, 0, 1, -124.38226318359375, -133.06927490234375)"/>
  <path d="m443.56,515.56c-13.91,-67.27 -31.3,-89.69 -31.3,-89.69l-6.64,-5.15l-7.99,-6.21l0.04,-0.8l-1.9,-0.64l-0.44,-0.35l-0.73,-0.56l-0.12,0.13l-0.25,0.25l-36.15,-12.28l-45.87,-15.58l-21.24,-27.61a36.73,36.73 0 0 0 -29.38,-14.33l-67.83,0.5a36.73,36.73 0 0 0 -24.71,9.8l-44.58,41.35l-69.47,33.18l-0.12,-0.12l-0.73,0.53l-10.73,5.13l0.44,2.3l-6.64,4.8s-17.39,20.86 -31.31,83.46c-3.54,15.92 -5.28,50.09 -5.91,92.18a16.07,16.07 0 0 0 16.07,16.31l371.04,0l0,0l46.32,0a16.07,16.07 0 0 0 16.06,-16.29c-0.62,-45.81 -2.36,-83.04 -5.93,-100.31z" fill="#06426a" id="svg_11" transform="matrix(1 0 0 1 0 0)"/>
  <path d="m491.17,58.66a54.43,54.43 0 1 0 0,108.86l405.64,0a54.43,54.43 0 0 0 0,-108.86l-405.64,0z" fill="#bdbcbc" id="svg_12" transform="matrix(1 0 0 1 0 0)"/>
  <path d="m491.17,69.68a43.41,43.41 0 1 0 0,86.83l405.64,0a43.41,43.41 0 0 0 0,-86.83l-405.64,0z" fill="#fff" id="svg_13" transform="matrix(1 0 0 1 0 0)"/>
  <circle cx="238.32" cy="228.39" data-name="ab6171fa-7d69-4734-b81c-8dff60f9761b" fill="#9e616a" id="e096411a-cdc3-4e6d-bbd4-4630e1fee17e" r="88.86" transform="matrix(1, 0, 0, 1, 0, -7.105427357601002e-15)"/>
  <path d="m339.97,445.97q-0.57,-1.25 -1.13,-2.51c0.14,0 0.29,0.02 0.43,0.03l0.7,2.48z" fill="#2f2e41" id="svg_14" transform="matrix(1, 0, 0, 1, -124.38226318359375, -133.06927490234375)"/>
  <path d="m271.37,276.64c4.5,-3.59 9.75,-6.88 15.49,-6.7c5.75,0.19 11.58,5.38 10.39,11a91.32,91.32 0 0 1 109.89,-41.21c14.28,5.04 28.29,15.12 31.57,29.91c0.84,3.79 1.02,7.95 3.39,11.04c2.99,3.88 8.71,4.76 13.42,3.39q0.07,-0.02 0.14,-0.04a4.2,4.2 0 0 1 5.07,5.93l-4.04,7.54a32.38,32.38 0 0 0 15.43,-0.33a4.2,4.2 0 0 1 4.45,6.53c-13.32,18.29 -35.58,30.1 -58.3,29.96c-16.15,-0.09 -32.46,-5.66 -48.17,-1.95a41.84,41.84 0 0 0 -28.15,58.74c-4.82,-5.28 -14.16,-4.03 -19.09,1.15c-4.94,5.18 -6.22,12.91 -5.72,20.04c0.76,10.92 5.03,21.2 9.54,31.21c-37.8,-1.19 -73.55,-27.7 -85.59,-63.57c-12.08,-36.01 0.58,-78.95 30.28,-102.64z" fill="#2f2e41" id="svg_15" transform="matrix(1, 0, 0, 1, -124.38226318359375, -133.06927490234375)"/>
  <polygon id="svg_16" opacity="0.2" points="87.464 495.253 112.388 630.86 127.343 632.162 87.464 495.253" transform="matrix(1, 0, 0, 1, 0, -7.105427357601002e-15)"/>
  <polygon id="svg_17" opacity="0.2" points="362.007 485.026 337.083 630.762 322.128 632.162 362.007 485.026" transform="matrix(1, 0, 0, 1, 0, -7.105427357601002e-15)"/>
  <path d="m168.25,97.93c-4.78,2 -9.77,-0.19 -11.86,-5.2c-2.12,-5.08 -0.14,-10.24 4.72,-12.27c4.85,-2.03 9.75,0.16 11.91,5.33c2.12,5.09 0.16,10.08 -4.77,12.14zm-9.15,-27.48l-3.8,1.59a4.1,4.1 0 0 1 -5.21,-1.91l-0.19,-0.37c-4.09,-7.37 -4.56,-16.34 -1.38,-26.62c2.94,-9.23 4.16,-15.72 1.7,-21.6c-2.84,-6.8 -8.9,-8.92 -16.63,-5.84c-2.99,1.25 -3.95,1.23 -6.31,3.57a5.42,5.42 0 0 1 -3.92,1.6a5.24,5.24 0 0 1 -3.75,-1.65a5.35,5.35 0 0 1 -0.03,-7.3a41.54,41.54 0 0 1 14.04,-9.64c16.61,-6.93 24.97,3.3 28.8,12.47c3.74,8.96 1.63,17.27 -1.75,28.04c-2.83,8.95 -2.67,15.58 0.55,22.17a4.08,4.08 0 0 1 -2.12,5.49z" fill="#fac600" id="svg_18" transform="matrix(1 0 0 1 0 0)"/>
  <path d="m580.77,139.05l-80.71,0a1.94,1.94 0 1 1 0,-3.89l80.71,0a1.94,1.94 0 0 1 0,3.89z" fill="#bdbcbc" id="svg_19" transform="matrix(1 0 0 1 0 0)"/>
  <path d="m683.15,139.7l-80.71,0a1.94,1.94 0 1 1 0,-3.89l80.71,0a1.94,1.94 0 1 1 0,3.89z" fill="#bdbcbc" id="svg_20" transform="matrix(1 0 0 1 0 0)"/>
  <path d="m785.53,140.35l-80.7,0a1.94,1.94 0 0 1 0,-3.89l80.7,0a1.94,1.94 0 1 1 0,3.89z" fill="#bdbcbc" id="svg_21" transform="matrix(1 0 0 1 0 0)"/>
  <path d="m887.91,141l-80.7,0a1.94,1.94 0 0 1 0,-3.89l80.7,0a1.94,1.94 0 0 1 0,3.89z" fill="#bdbcbc" id="svg_22"/>
  <circle cx="540.24" cy="106.16" fill="#fac600" id="svg_23" r="15" transform="matrix(1 0 0 1 0 0) matrix(1 0 0 1 0 -7.10543e-15)"/>
  <circle cx="643.24" cy="106.16" fill="#fac600" id="svg_24" r="15" transform="matrix(1 0 0 1 0 0) matrix(1 0 0 1 0 -7.10543e-15)"/>
  <circle cx="746.24" cy="106.16" fill="#fac600" id="svg_25" r="15" transform="matrix(1 0 0 1 0 0) matrix(1 0 0 1 0 -7.10543e-15)"/>
  <circle cx="849.24" cy="106.16" fill="#fac600" id="svg_26" r="15" transform="matrix(1 0 0 1 0 0) matrix(1 0 0 1 0 -7.10543e-15)"/>
 </g>
</svg>