<?xml version="1.0"?>
<svg width="596.67203" height="728.99791" xmlns="http://www.w3.org/2000/svg" xmlns:svg="http://www.w3.org/2000/svg" data-name="Layer 1">
 <g class="layer">
  <title>Layer 1</title>
  <path d="m308.27,638.5a22.05,22.05 0 0 0 -0.45,31.03l135.38,138.26a22,22 0 0 0 31.35,0.3l417.31,-423.47a22,22 0 0 0 -3.52,-34.02l-155.24,-102.93a21.87,21.87 0 0 0 -27.38,2.69l-397.45,388.14z" fill="#3f3d56" id="svg_1" transform="translate(-301.66398 -85.50104)"/>
  <path d="m867.39,368.25l-17.3,-11.04a16.49,16.49 0 0 1 -23.74,21.65l-112,-77a16.48,16.48 0 0 1 4.36,-29.3l-8.92,-5.68a6,6 0 0 0 -7.49,0.84l-376.78,370.27a6,6 0 0 0 0.16,8.58l136.83,133.33a6,6 0 0 0 8.35,-0.11l397.54,-402.23a6,6 0 0 0 -1.01,-9.31z" fill="#fff" id="svg_2" transform="translate(-301.66398 -85.50104)"/>
  <polygon fill="#bdbcbc" id="svg_3" points="130.873 470.728 246.456 579.706 521.379 308.086 381.853 217.271 130.873 470.728" transform="matrix(1 0 0 1 0 0)"/>
  <path d="m812.36,460.62a4.1,4.1 0 0 0 5.65,0l24.05,-24.04a4.01,4.01 0 0 0 0,-5.66a4.1,4.1 0 0 0 -5.66,0l-24.04,24.04a4.01,4.01 0 0 0 0,5.66z" fill="#3f3d56" id="svg_4" transform="translate(-301.66398 -85.50104)"/>
  <path d="m771.86,501.12a4.01,4.01 0 0 0 5.65,0l24.05,-24.04a4,4 0 1 0 -5.66,-5.66l-24.04,24.04a4.01,4.01 0 0 0 0,5.66z" fill="#3f3d56" id="svg_5" transform="translate(-301.66398 -85.50104)"/>
  <circle cx="133.54" cy="564.27" fill="#fac600" id="svg_6" r="27" transform="matrix(1 0 0 1 0 0)"/>
  <ellipse cx="286.04" cy="434.77" fill="#fff" id="svg_7" rx="74.5" ry="40.5"/>
  <path d="m491.67,169.16l-0.89,8.09l-0.52,4.78l-2.58,23.41s-1.97,3.65 -5.48,8.77c-5.85,8.5 -16.01,21.06 -28.61,27.66c-20.2,10.59 -28.17,-65.43 -28.17,-65.43s-4.36,-29.48 6.36,-30.56s7.03,11.62 7.85,32.5s14.82,38.56 14.82,38.56s14.91,-20.68 21.46,-34.56c3.41,-7.23 7.55,-10.52 10.73,-12l0.01,0a13.15,13.15 0 0 1 3.29,-1.08a7.81,7.81 0 0 1 1.73,-0.14z" fill="#ffb8b8" id="svg_8" transform="translate(-301.66398 -85.50104)"/>
  <path d="m156.83,116.92l32.88,19.12l17.91,-31.9l-4.05,-14.39l0,0a24.73,24.73 0 0 0 -32.31,1.58l-14.43,25.59z" fill="#fac600" id="svg_9" transform="matrix(1 0 0 1 0 0)"/>
  <path d="m470.53,88.47l0,0c-19.04,7.87 -27.39,31.37 -18.66,52.49l11.1,26.84l8.25,-3.41l0.67,-11.92l2.91,10.44l53.06,-21.93l0.61,-10.84l2.65,9.49l5.97,-2.47l-8.71,-21.07c-10.05,-24.31 -35.95,-36.68 -57.85,-27.62z" fill="#2f2e41" id="svg_10" transform="translate(-301.66398 -85.50104)"/>
  <path d="m489.45,225.93l3.34,24.31l52.64,-23.99l-8.44,-17.73s-44.41,6.07 -47.54,17.41z" fill="#a0616a" id="svg_11" transform="translate(-301.66398 -85.50104)"/>
  <polygon fill="#ffb8b8" id="svg_12" points="172.549 249.504 205.497 280.567 213.435 253.827 189.035 232.635 172.549 249.504"/>
  <polygon fill="#ffb8b8" id="svg_13" points="273.458 372.003 293.508 415.101 314.498 406.425 293.493 363.721 273.458 372.003"/>
  <path d="m475.78,287.44l22.55,27.54l77.42,146.73s14.93,-1.7 22.5,-10.41l-6.77,-21.78l-45.88,-121.79s14.19,-17.04 6.76,-29.6s-19.7,-28.73 -19.7,-28.73l-56.88,38.04z" fill="#2f2e41" id="svg_14" transform="translate(-301.66398 -85.50104)"/>
  <path d="m593.7,488.92l-5.73,2.37s-9.12,23.88 -14.05,28.15s-27.81,32.72 -2.78,25.73s35.18,-25.72 35.18,-25.72s9.6,1.62 18.52,-6.53s-1.54,-17.24 -1.54,-17.24s-12.54,-15.25 -12.68,-15.03s-2.32,11.17 -16.92,8.27z" fill="#2f2e41" id="svg_15" transform="translate(-301.66398 -85.50104)"/>
  <circle cx="479.32" cy="128.46" fill="#ffb8b8" id="svg_16" r="23.74" transform="translate(-314.38514 107.35656) rotate(-22.45948)"/>
  <path d="m523.59,143.68l-6.62,12.58l-0.89,1.69l3.78,11.84l-37.21,15.39s3.26,-6.5 6.09,-13c0.05,-0.14 0.11,-0.3 0.18,-0.45c0.39,-0.89 0.72,-1.7 1.02,-2.43c0.16,-0.4 0.32,-0.77 0.45,-1.12c0.23,-0.57 0.45,-1.12 0.67,-1.67a0.04,0.04 0 0 0 0,-0.02a40.29,40.29 0 0 0 1.41,-4.36l0.01,-0.02a12,12 0 0 0 0.25,-1.21c0.89,-5.95 -9.74,-12.73 -9.74,-12.73l16.66,-19.17c5.01,10.04 16.61,13.33 21.59,14.31c1.46,0.28 2.35,0.37 2.35,0.37z" fill="#ffb8b8" id="svg_17" transform="translate(-301.66398 -85.50104)"/>
  <path d="m641.37,282.66c-12.74,9.73 -25.52,-18.49 -25.52,-18.49l-35.68,-30.99a97.75,97.75 0 0 1 -19.25,-22.73l-16.16,-26.37l-0.69,2.19l0,0.01l-1.95,2.24l-24.76,-17.69l-6.94,-4.95l-3.15,-7.64l11.55,-12.59l5.72,-2.37s0.12,-0.07 0.33,-0.18c2.52,-1.36 19.18,-9.59 26.97,6.77c3.06,6.42 5.28,11.87 6.86,16.21a136.33,136.33 0 0 0 17.85,33.75c2.72,3.72 5.31,6.87 7.21,8.34c6.58,5.1 41.63,52.05 41.63,52.05s28.71,12.71 15.98,22.44z" fill="#ffb8b8" id="svg_18" transform="translate(-301.66398 -85.50104)"/>
  <path d="m492.47,162.13c0.01,0.12 -0.09,1.15 -2.08,6.05a49.83,49.83 0 0 0 2.08,-6.05z" fill="#d0cde1" id="svg_19" transform="translate(-301.66398 -85.50104)"/>
  <path d="m242.82,99.25l-0.41,1.53l-0.29,31.49s-12.48,22.57 -26.62,26.19c-8.05,1.81 -23.12,-6.12 -24.47,2.02l-5.61,-25.77l-4.88,-6c-0.57,-0.71 -1.22,-1.48 -1.92,-2.36c-6.81,-8.36 -0.65,-23.19 -0.65,-23.19l7.01,-18.28l0,0a13.14,13.14 0 0 1 3.3,-1.08c-0.3,0.73 -0.63,1.54 -1.02,2.43c-0.07,0.15 -0.13,0.31 -0.18,0.45c-2.11,5.24 0.22,5.5 2.04,5.07a9.09,9.09 0 0 0 1.74,-0.62c4.22,-1.08 11.49,-8.17 16.67,-13.73c3.53,-3.78 6.1,-6.86 6.1,-6.86l5.18,-11.07l0.77,-1.66c1.46,0.28 2.35,0.37 2.35,0.37l0.95,-0.4s0.12,-0.07 0.33,-0.18l-3.01,5.02a17.48,17.48 0 0 0 -0.71,16.67l0,0l23.33,19.96z" fill="#06426a" id="svg_20"/>
  <path d="m503.72,233.44l-11.7,11.21s-87.84,2.01 -89.43,30.59s73.59,64.53 73.59,64.53l18.56,-19.96l-21.37,-24.67s74.66,23.87 86.91,-11.35s-18.07,-65.34 -18.07,-65.34s-18.98,-5.37 -38.49,14.99z" fill="#2f2e41" id="svg_21" transform="translate(-301.66398 -85.50104)"/>
  <path d="m506.64,354l-5.83,10.22s20.26,27.38 19.37,33.33s-1.1,21.68 9,16.39s14.85,-26.25 13.44,-32.37s-1.84,-26.05 -1.84,-26.05s0.41,-31.45 -8.57,-28.85s-22.92,7.61 -22.92,7.61l-2.65,19.72z" fill="#2f2e41" id="svg_22" transform="translate(-301.66398 -85.50104)"/>
  <path d="m484.68,94.95a19.56,19.56 0 0 0 -17.27,-1.38l-0.68,0.28c-13.04,5.39 -18.74,21.57 -12.72,36.13l0,0l4.37,-1.8l-1.51,-5.67l3.25,4.95l25.93,-10.72l0.29,-5.44l1.34,4.77l5.1,-2.11q10.9,16.25 4.4,39.7l8.69,-3.59l0.58,-10.89l2.67,9.54l16.57,-6.85l-5.39,-22.26c-6.47,-15.66 -21.06,-25.18 -35.62,-24.66z" fill="#2f2e41" id="svg_23" transform="translate(-301.66398 -85.50104)"/>
  <path d="m281.08,91.88l-50.13,20.72l-16.08,-38.9l6.59,-15.88l0,0a28.45,28.45 0 0 1 36.69,6.24l22.93,27.82z" fill="#fac600" id="svg_24" transform="matrix(1 0 0 1 0 0)"/>
 </g>
</svg>