<?xml version="1.0"?>
<svg width="820.61472" height="714.55787" xmlns="http://www.w3.org/2000/svg" xmlns:svg="http://www.w3.org/2000/svg" data-name="Layer 1">
 <title>voice_assistant</title>
 <g class="layer">
  <title>Layer 1</title>
  <path d="m708.73,261.94l-3.92,0l0,-107.18a62.04,62.04 0 0 0 -62.03,-62.04l-227.09,0a62.04,62.04 0 0 0 -62.04,62.04l0,588.03a62.04,62.04 0 0 0 62.04,62.04l227.09,0a62.04,62.04 0 0 0 62.03,-62.04l0,-404.55l3.92,0l0,-76.3z" fill="#3f3d56" id="svg_1" transform="translate(-189.69264 -92.72106)"/>
  <rect fill="#3f3d56" height="2" id="svg_2" width="718" x="0.24" y="682.87"/>
  <path d="m455.59,16.14l-29.64,0a22.01,22.01 0 0 1 -20.38,30.32l-130.1,0a22.01,22.01 0 0 1 -20.38,-30.32l-27.68,0a46.33,46.33 0 0 0 -46.33,46.33l0,587.17a46.33,46.33 0 0 0 46.33,46.33l228.18,0a46.33,46.33 0 0 0 46.33,-46.33l0,-587.17a46.33,46.33 0 0 0 -46.33,-46.33z" id="svg_3" opacity="0.2" transform="matrix(1 0 0 1 0 0)"/>
  <path d="m261.26,777.49l-1.08,-0.41c-0.23,-0.09 -23.71,-9.08 -34.7,-29.47c-11,-20.39 -5.61,-44.95 -5.56,-45.19l0.26,-1.12l1.07,0.4c0.23,0.09 23.71,9.09 34.7,29.48c11,20.39 5.61,44.94 5.56,45.19l-0.25,1.12zm-34.02,-30.83c9.29,17.24 27.84,26.08 32.54,28.1c0.9,-5.04 3.7,-25.41 -5.59,-42.63c-9.29,-17.23 -27.84,-26.08 -32.54,-28.1c-0.9,5.04 -3.7,25.41 5.59,42.63z" fill="#3f3d56" id="svg_4" transform="translate(-189.69264 -92.72106)"/>
  <path d="m233.88,740.46c19.76,11.89 27.37,35.5 27.37,35.5s-24.43,4.34 -44.19,-7.55s-27.37,-35.5 -27.37,-35.5s24.43,-4.34 44.19,7.55z" fill="#fac600" id="svg_5" transform="translate(-189.69264 -92.72106)"/>
  <rect fill="#fac600" height="10.58" id="svg_6" width="43.96" x="238.67" y="229.89"/>
  <rect fill="#fac600" height="10.58" id="svg_7" width="15.47" x="419.4" y="229.89"/>
  <rect fill="#fac600" height="10.58" id="svg_8" width="15.47" x="450.33" y="229.89"/>
  <rect fill="#fac600" height="10.58" id="svg_9" width="105.02" x="298.1" y="229.89"/>
  <rect fill="#fac600" height="10.58" id="svg_10" width="15.47" x="364.04" y="298.27"/>
  <rect fill="#fac600" height="10.58" id="svg_11" width="15.47" x="394.97" y="298.27"/>
  <rect fill="#fac600" height="10.58" id="svg_12" width="105.02" x="242.74" y="298.27"/>
  <rect fill="#fac600" height="10.58" id="svg_13" width="43.96" x="364.85" y="253.5"/>
  <rect fill="#fac600" height="10.58" id="svg_14" width="43.96" x="424.28" y="253.5"/>
  <rect fill="#fac600" height="10.58" id="svg_15" width="15.47" x="214.24" y="253.5"/>
  <rect fill="#fac600" height="10.58" id="svg_16" width="105.02" x="245.18" y="253.5"/>
  <rect fill="#fac600" height="10.58" id="svg_17" transform="translate(781.00156 655.8864) rotate(-180)" width="43.96" x="463.37" y="369.01"/>
  <rect fill="#fac600" height="10.58" id="svg_18" transform="translate(662.14258 655.8864) rotate(-180)" width="43.96" x="403.94" y="369.01"/>
  <rect fill="#fac600" height="10.58" id="svg_19" transform="translate(1110.7131 655.8864) rotate(-180)" width="15.47" x="642.47" y="369.01"/>
  <rect fill="#fac600" height="10.58" id="svg_20" transform="translate(959.29002 655.8864) rotate(-180)" width="105.02" x="521.98" y="369.01"/>
  <circle cx="341.5" cy="453.87" fill="#fac600" id="svg_21" r="40"/>
  <path d="m789.11,310.2c-11.61,-19.61 -34.57,-20.52 -34.57,-20.52s-22.38,-2.86 -36.73,27.01c-13.38,27.84 -31.85,54.72 -2.98,61.24l5.22,-16.24l3.23,17.44a112.97,112.97 0 0 0 12.35,0.21c30.92,-0.99 60.37,0.3 59.42,-10.8c-1.26,-14.75 5.22,-39.46 -5.94,-58.34z" fill="#2f2e41" id="svg_22" transform="translate(-189.69264 -92.72106)"/>
  <path d="m747.31,347.14s15,21 6,38s21,35 21,35l22,-48s-26,-17 -19,-33l-30,8z" fill="#fbbebe" id="svg_23" transform="translate(-189.69264 -92.72106)"/>
  <circle cx="567.61" cy="237.42" fill="#fbbebe" id="svg_24" r="26"/>
  <path d="m667.33,360.19l21.73,-28.03s7.65,-29.38 18.73,-27.89s-4.38,35.24 -4.38,35.24l-21.59,31.03l-14.49,-10.35z" fill="#fbbebe" id="svg_25" transform="translate(-189.69264 -92.72106)"/>
  <polygon fill="#fbbebe" id="svg_26" points="587.615 640.417 594.615 677.417 609.615 681.417 605.615 637.417 587.615 640.417"/>
  <polygon fill="#fbbebe" id="svg_27" points="738.615 600.417 765.615 637.417 776.615 642.417 785.615 627.417 758.615 592.417 738.615 600.417"/>
  <path d="m581.62,311.42l-16.68,-21.96s-32.32,5.96 -35.32,8.96s8,58 8,58s2,15 11,23l9,6l74,-15l2.78,-32.93a86.41,86.41 0 0 0 -22.78,-66.07l0,0l-12.88,1.76l-17.12,38.24z" fill="#b6dce1" id="svg_28" transform="matrix(1 0 0 1 0 0)"/>
  <path d="m533.62,300.42l-5,-2l-23,-2s-8,-2 -6,-6s4,-5 0,-6s-5,-2 -4,-5s7,-9 7,-9l-17,-14s-0.92,0.65 -2.41,1.85c-8.44,6.84 -35.15,31.49 -15.59,56.15c23,29 50,46 72,40l-6,-54z" fill="#b6dce1" id="svg_29"/>
  <path d="m745.31,473.14l0,14s-9,17 -6,33s4,24 4,24a136.53,136.53 0 0 0 7,40c7,20 -16,151 13,153s45,4 54,-6s-15,-182 -15,-182s82,171 99,164s60,-23 55,-32s-131,-209 -131,-209l-4,-9l-76,10z" fill="#2f2e41" id="svg_30" transform="translate(-189.69264 -92.72106)"/>
  <path d="m793.31,763.14s-16,-1 -16,4s-8,22 -8,22s-6,20 10,18s26,-20 26,-20l-4,-19l-8,-5z" fill="#2f2e41" id="svg_31" transform="translate(-189.69264 -92.72106)"/>
  <path d="m960.31,728.14s-14,-9 -13,-3s2,22 9,23s28,7 29,9s25,10 25,-3s-15,-23 -15,-23l-17,-13s-11,-1 -13,6s-5,4 -5,4z" fill="#2f2e41" id="svg_32" transform="translate(-189.69264 -92.72106)"/>
  <circle cx="567.65" cy="197.06" fill="#2f2e41" id="svg_33" r="16.6"/>
  <path d="m739,285.41a16.6,16.6 0 0 1 14.85,-16.51a16.6,16.6 0 1 0 0,33.02a16.6,16.6 0 0 1 -14.85,-16.51z" fill="#2f2e41" id="svg_34" transform="translate(-189.69264 -92.72106)"/>
  <polygon fill="#2f2e41" id="svg_35" points="594.282 215.593 571.596 203.709 540.266 208.571 533.785 237.199 549.92 236.579 554.428 226.061 554.428 236.405 561.873 236.119 566.194 219.374 568.895 237.199 595.363 236.659 594.282 215.593"/>
  <path d="m782.62,475.46l-34.99,0.94s-29.85,5.81 -28.18,-6.24s30.8,-7.83 30.8,-7.83l31.88,-4.87l0.49,18z" fill="#fbbebe" id="svg_36" transform="translate(-189.69264 -92.72106)"/>
  <path d="m620.61,269.72a7.47,7.47 0 0 1 8.23,5.13c6.85,21.59 27.96,93.81 6.99,103.72c-24.69,11.68 -42.71,11.16 -42.71,11.16l-9.65,-23.75l8.78,-8.24l9.38,-60.27l4.49,-25.55l14.49,-2.2z" fill="#b6dce1" id="svg_37" transform="matrix(1 0 0 1 0 0)"/>
  <polygon id="svg_38" opacity="0.4" points="614.115 309.917 610.115 349.917 575.115 364.917 614.115 355.917 614.115 309.917"/>
 </g>
</svg>